<svg id="Capa_1" data-name="Capa 1" xmlns="http://www.w3.org/2000/svg" viewBox="0 0 1950.33 734.16"><defs><style>.cls-1{fill:#fff;}.cls-2,.cls-29{fill:#e5007e;}.cls-27,.cls-3{fill:#e3a2da;}.cls-28,.cls-4{fill:#e26ac2;}.cls-30,.cls-5{fill:#bd005e;}.cls-6{font-size:102px;}.cls-17,.cls-18,.cls-19,.cls-6{font-family:Epilogue-ExtraBold, Epilogue;font-weight:800;}.cls-7{font-size:32px;}.cls-13,.cls-27,.cls-28,.cls-29,.cls-30,.cls-7{font-family:Epilogue-Regular, Epilogue;}.cls-8{letter-spacing:-0.02em;}.cls-9{letter-spacing:-0.02em;}.cls-10{letter-spacing:-0.01em;}.cls-11{letter-spacing:-0.02em;}.cls-12{letter-spacing:-0.01em;}.cls-13{font-size:40px;}.cls-14{letter-spacing:-0.01em;}.cls-15{letter-spacing:-0.02em;}.cls-16{letter-spacing:-0.02em;}.cls-18{letter-spacing:0em;}.cls-19{letter-spacing:-0.01em;}.cls-20{letter-spacing:-0.03em;}.cls-21{letter-spacing:-0.01em;}.cls-22{letter-spacing:-0.03em;}.cls-23{font-size:30px;font-family:Epilogue-Italic, Epilogue;font-style:italic;}.cls-24{letter-spacing:-0.03em;}.cls-25{letter-spacing:-0.01em;}.cls-26{letter-spacing:-0.02em;}.cls-27,.cls-28,.cls-29,.cls-30{font-size:37px;}.cls-31,.cls-32,.cls-33,.cls-34{fill:none;stroke-miterlimit:10;stroke-width:3px;}.cls-31{stroke:#e3a2da;}.cls-32{stroke:#e26ac2;}.cls-33{stroke:#e5007e;}.cls-34{stroke:#bd005e;}</style></defs><rect class="cls-1" x="55.29" width="1895.04" height="734.16" rx="30.24"/><path class="cls-2" d="M1909.76,2100.84c-.57-26.63-4-52.93-9.24-79a490.88,490.88,0,0,0-34.26-106.43,500,500,0,0,0-82.44-126.85c-8.09-9.08-16.45-17.91-25.19-26.36A508,508,0,0,0,1698.1,1712a496.33,496.33,0,0,0-227-87.36c-13.42-1.61-26.88-2.73-40.39-3.26a5.08,5.08,0,0,1-2.11-.36h-36.48a5.89,5.89,0,0,1-2.35.37A496.33,496.33,0,0,0,1192.05,1671a499,499,0,0,0-112.1,74.63q-16.77,14.76-32.15,30.93a503.28,503.28,0,0,0-51,63.23,497.44,497.44,0,0,0-54.11,103.8,492.24,492.24,0,0,0-24.95,91q-3.63,20.92-5.52,42.08c-.51,5.74-1,11.47-1.16,17.23a13.27,13.27,0,0,1-.8,5.18V2137H1100.5v-13.85a8.2,8.2,0,0,0,.5-3.25c.1-3.62.41-7.22.73-10.82q1.18-13.27,3.46-26.42a308.91,308.91,0,0,1,15.67-57.14,312.39,312.39,0,0,1,34-65.17,316.6,316.6,0,0,1,32-39.7q9.65-10.17,20.19-19.42a313.62,313.62,0,0,1,129.68-68.58,310.87,310.87,0,0,1,64.86-9.42,3.87,3.87,0,0,0,1.47-.23H1426a3.14,3.14,0,0,0,1.32.22c8.48.34,16.93,1,25.36,2a311.32,311.32,0,0,1,95.69,27.58,312.09,312.09,0,0,1,46.81,27.27,319.84,319.84,0,0,1,38,31.5c5.48,5.31,10.73,10.85,15.81,16.55a313.94,313.94,0,0,1,51.76,79.64,308.33,308.33,0,0,1,21.51,66.82,283.21,283.21,0,0,1,5.8,49.6,9.93,9.93,0,0,0,.2,1.33V2137h181.85V2103A17.23,17.23,0,0,1,1909.76,2100.84Z" transform="translate(-419.35 -1402.88)"/><path class="cls-3" d="M1040.1,1784.88a503.54,503.54,0,0,0-43.32,54.93,497.44,497.44,0,0,0-54.11,103.8,492.24,492.24,0,0,0-24.95,91q-3.63,20.92-5.52,42.08c-.51,5.74-1,11.47-1.16,17.23a13.27,13.27,0,0,1-.8,5.18V2137H1100.5v-13.85a8.2,8.2,0,0,0,.5-3.25c.1-3.62.41-7.22.73-10.82q1.18-13.27,3.46-26.42a308.91,308.91,0,0,1,15.67-57.14,313.77,313.77,0,0,1,63.2-101.86Z" transform="translate(-419.35 -1402.88)"/><path class="cls-4" d="M1184.06,1923.7c2-2.18,8.34-8.09,10.35-10.21,6.44-6.78,13.09-12.42,20.11-18.6,10.19-9,21.87-16.38,33.13-24,12.23-8.23,25-14,38.24-20.47,19-9.25,39.11-14.65,59.61-19.87,21.29-5.42,39-6.7,60.92-7.55.51,0,19.17,0,26.83.52.47,0,17.56,1.6,26,2.62,11.58,1.39,23.56,4.33,34.91,7,21.18,5,43.65,14.9,63.33,24.19,16.39,7.73,28.21,16.19,43,26.63,13.49,9.51,23.46,19.32,35.33,30.79,5.49,5.31,10.73,10.85,15.81,16.55,10.31,11.57,20.23,25.67,28.74,38.62,8.75,13.34,11.61,18.8,18.24,33.31L1870.91,1926c-1.68-4-6.47-14.47-8.26-18.42-10.72-23.73-17.29-35.1-31.58-56.88-13.54-20.64-28.26-40.84-44.69-59.26-8.09-9.08-19-20.81-27.75-29.26a475.58,475.58,0,0,0-58.38-48.66,529,529,0,0,0-76.69-45c-31.36-14.79-58.6-24.92-92.34-32.9-18.07-4.27-35.21-8-53.66-10.21-13.42-1.62-27-3.91-40.54-4.44-.72,0-24.67-1-37.44-1-14.88,0-68.66,5.15-102.56,13.78-32.65,8.32-60.41,15.78-90.73,30.52-21.11,10.26-44.74,21.45-64.21,34.56-17.94,12.07-38.35,25.22-54.58,39.51-11.17,9.84-22.21,19.86-32.45,30.65-5.11,5.39-10.35,10.48-15.21,16.07Z" transform="translate(-419.35 -1402.88)"/><path class="cls-5" d="M1727.89,2137c0-4.23.08-8.48-.09-12.71-.22-5.86-.4-11.73-1.09-17.56-.1-.86.19-1.27,1-1.33,1.44-.1,2.87-.24,4.3-.34l22.22-1.5q8.48-.59,17-1.21l22.32-1.62c6.37-.47,12.73-.95,19.1-1.4,4-.29,8-.51,12.07-.8,6.13-.44,12.25-.91,18.38-1.36,3.62-.27,7.25-.5,10.87-.76l19.46-1.4c3.9-.28,7.8-.51,11.7-.79,6.21-.44,12.42-.91,18.62-1.37,1.48-.1,3-.14,4.42-.3,1.15-.12,1.46.36,1.47,1.42,0,2.24.14,4.47.21,6.7a3.13,3.13,0,0,0,.21,1.29c0,11.32,0,22.64,0,34,0,.9-.21,1.11-1.11,1.11Q1818.43,2137,1727.89,2137Z" transform="translate(-419.35 -1402.88)"/><path class="cls-3" d="M756,1862.6H419.35V1519.16H756C987.81,1519.16,987.81,1862.6,756,1862.6Z" transform="translate(-419.35 -1402.88)"/><text class="cls-6" transform="translate(42.49 215.53)">23%</text><text class="cls-7" transform="translate(54.37 265.52)">de las comunas <tspan x="0" y="43">anali</tspan><tspan class="cls-8" x="74.42" y="43">z</tspan><tspan x="89.28" y="43">adas </tspan><tspan class="cls-9" x="174.3" y="43">g</tspan><tspan x="192.99" y="43">ene</tspan><tspan class="cls-10" x="253.98" y="43">r</tspan><tspan x="266.54" y="43">an </tspan><tspan x="0" y="86">menos de 1kg de basu</tspan><tspan class="cls-10" x="347.12" y="86">r</tspan><tspan x="359.68" y="86">a </tspan><tspan x="0" y="129">por habi</tspan><tspan class="cls-11" x="129.33" y="129">t</tspan><tspan x="142.83" y="129">a</tspan><tspan class="cls-12" x="162.32" y="129">n</tspan><tspan class="cls-11" x="181.45" y="129">t</tspan><tspan x="194.96" y="129">e al día.</tspan></text><text class="cls-13" transform="translate(185.79 59.48)">En p<tspan class="cls-14" x="81.54" y="0">r</tspan><tspan x="97.24" y="0">omedio y diariame</tspan><tspan class="cls-15" x="457.84" y="0">n</tspan><tspan class="cls-16" x="481.76" y="0">t</tspan><tspan x="498.64" y="0">e, ¿cuá</tspan><tspan class="cls-15" x="641.01" y="0">n</tspan><tspan class="cls-16" x="664.93" y="0">t</tspan><tspan x="681.81" y="0">os </tspan><tspan class="cls-17" x="740.49" y="0">kilos</tspan><tspan class="cls-18" x="835.37" y="0"> </tspan><tspan class="cls-17" x="845.53" y="0">de basu</tspan><tspan class="cls-19" x="1009.13" y="0">r</tspan><tspan class="cls-17" x="1027.89" y="0">a</tspan><tspan x="1053.25" y="0" xml:space="preserve"> se </tspan><tspan class="cls-20" x="1121.55" y="0">g</tspan><tspan x="1144.91" y="0">ene</tspan><tspan class="cls-21" x="1221.15" y="0">r</tspan><tspan x="1236.85" y="0">an per cápi</tspan><tspan class="cls-16" x="1457.67" y="0">t</tspan><tspan x="1474.55" y="0">a en </tspan><tspan x="569.2" y="43">di</tspan><tspan class="cls-22" x="604.22" y="43">f</tspan><tspan x="619.3" y="43">e</tspan><tspan class="cls-14" x="645.16" y="43">r</tspan><tspan x="660.86" y="43">e</tspan><tspan class="cls-15" x="686.72" y="43">n</tspan><tspan class="cls-16" x="710.64" y="43">t</tspan><tspan x="727.52" y="43">es comunas?</tspan></text><text class="cls-23" transform="translate(884.38 162.07)"><tspan class="cls-24">F</tspan><tspan x="14.52" y="0">ue</tspan><tspan class="cls-25" x="51.85" y="0">n</tspan><tspan class="cls-26" x="69.78" y="0">t</tspan><tspan x="82.44" y="0">e: Siedu</tspan></text><text class="cls-27" transform="translate(96.13 542.67)">Menos de 1 kilo 23.21%</text><text class="cls-28" transform="translate(1197.61 233.99)">1 - 1,49 kilos 63.39%</text><text class="cls-29" transform="translate(1520.17 601.19)">1,5 - 1,99 kilos 10.71% </text><text class="cls-30" transform="translate(1530.25 709.19)">1,5 - 1,99 kilos 10.71% </text><line class="cls-31" x1="495.73" y1="542.88" x2="524.89" y2="559.08"/><path class="cls-32" d="M1496.48,1635.08l3.52-21.6s77.18,20.82,105.62,36.3l7.5-12.78" transform="translate(-419.35 -1402.88)"/><line class="cls-33" x1="1487.89" y1="610.4" x2="1516.51" y2="603"/><line class="cls-34" x1="1499.05" y1="714.6" x2="1530.25" y2="708.3"/></svg>