<?xml version="1.0" encoding="utf-8"?>
<!-- Generator: Adobe Illustrator 22.0.1, SVG Export Plug-In . SVG Version: 6.00 Build 0)  -->
<svg version="1.1" id="Capa_1" xmlns="http://www.w3.org/2000/svg" xmlns:xlink="http://www.w3.org/1999/xlink" x="0px" y="0px"
	 viewBox="0 0 128 128" style="enable-background:new 0 0 128 128;" xml:space="preserve">
<style type="text/css">
	.st0{fill:#FFFFFF;}
	.st1{fill:#DB00A7;}
</style>
<g>
	<circle class="st0" cx="64" cy="64" r="61.1"/>
	<path d="M64,4.4c32.9,0,59.6,26.8,59.6,59.6S96.9,123.6,64,123.6S4.4,96.9,4.4,64S31.1,4.4,64,4.4 M64,1.4
		C29.4,1.4,1.4,29.4,1.4,64s28,62.6,62.6,62.6s62.6-28,62.6-62.6S98.6,1.4,64,1.4L64,1.4z"/>
</g>
<g>
	<path d="M45,28.3c0-1.5,0-3,0-4.4c0-2.5,1.7-4.4,4.3-4.4c4.2,0,8.5,0,12.6,0c2.6,0,4.3,1.9,4.3,4.4c0,1.4,0,2.9,0,4.3
		c0.4,0,0.8,0,1.1,0c4.2,0,8.3,0.1,12.4,0c2.8-0.1,4.7,1.5,5.3,3.9c0.4,1.4,0.9,2.8,1.4,4.1c0.9,2.9-0.7,5.2-3.7,5.3
		c-0.2,0-0.5,0-0.7,0.1c-0.2,2.1-0.4,4.2-0.5,6.2c-0.8,8.3-1.4,16.5-2.1,24.8c-0.5,5.6-0.8,11.3-1.4,16.9c-0.3,3.4-2.8,5.9-6.2,6.2
		c-0.2,0-0.5,0.1-0.8,0.1c-10.1,0-20.2,0-30.2,0c-3.9,0-6.6-2.6-7-6.5c-0.2-1.5-0.2-3.1-0.4-4.5c-0.7-8.3-1.3-16.5-2-24.8
		c-0.5-5.9-0.9-11.7-1.4-17.5c-0.1-0.7-0.3-0.9-0.9-0.8c-1.8,0.2-3.2-0.3-4.2-1.9c-0.5-0.9-0.6-1.9-0.3-2.9c0.6-1.8,1.1-3.5,1.8-5.2
		c0.7-1.9,2.2-3,4.2-3c3.4-0.1,6.9,0,10.3,0C42.2,28.3,43.5,28.3,45,28.3z M77.4,41.6c-14.3,0-28.6,0-42.9,0c0,0.2,0,0.4,0,0.5
		c0.4,4.5,0.8,8.9,1.1,13.5c0.8,10.9,1.8,21.7,2.6,32.6c0.2,2.2,1,3,3.2,3c9.7,0,19.4,0,29.1,0c0.3,0,0.7,0,1-0.1
		c1.2-0.2,1.9-1,2.1-2.2c0.2-1.5,0.2-3.1,0.4-4.6c0.5-6.8,1.1-13.5,1.6-20.3c0.5-5.2,0.8-10.6,1.3-15.8C77.1,46,77.3,43.8,77.4,41.6
		z M29.3,36.9c17.6,0,35.1,0,52.7,0c-0.4-1.1-0.8-2.2-1-3.2c-0.2-0.8-0.6-1-1.4-1c-15.9,0-31.8,0-47.7,0c-0.2,0-0.5-0.1-0.7,0
		c-0.2,0.1-0.5,0.2-0.5,0.4C30.1,34.4,29.7,35.7,29.3,36.9z M61.7,24c-4.2,0-8.2,0-12.2,0c0,1.5,0,2.8,0,4.2c4.1,0,8.1,0,12.2,0
		C61.7,26.8,61.7,25.4,61.7,24z"/>
	<path d="M45.8,66.5c0.3,5.7,0.6,11.4,0.9,17.1c0.1,0.9,0.2,1.8,0.2,2.7c0.1,1.3-0.8,2.3-2.1,2.5c-1.2,0.1-2.3-0.8-2.4-2.2
		c-0.2-3.6-0.4-7.3-0.6-10.9c-0.5-9-1-18-1.5-27.1c-0.1-0.7-0.1-1.4-0.1-2.2c0-1.3,0.8-2.3,2.1-2.4c1.3-0.1,2.2,0.9,2.3,2.2
		c0.4,6.6,0.7,13,1.1,19.6C45.8,66.2,45.8,66.4,45.8,66.5L45.8,66.5z"/>
	<path d="M70,66.5c-0.4,6.6-0.7,13.3-1.1,20c-0.1,1.5-1,2.5-2.4,2.5c-1.3-0.1-2.2-1.1-2.1-2.6c0.4-7.2,0.8-14.3,1.2-21.5
		c0.3-6,0.6-12.1,0.9-18.1c0.1-1.8,1.5-2.8,3-2.2c0.9,0.3,1.5,1.2,1.5,2.2c-0.2,4.2-0.5,8.6-0.6,12.8C70.2,61.7,70,64.1,70,66.5
		L70,66.5z"/>
	<path d="M57.9,66.5c0,6.6,0,13.2,0,19.8c0,1.8-1.2,2.8-2.8,2.4c-0.8-0.2-1.5-1-1.6-1.9c0-0.2,0-0.3,0-0.5c0-13.2,0-26.4,0-39.6
		c0-1.9,1.4-2.9,3-2.4c0.9,0.3,1.5,1.1,1.5,2.2c0,2.7,0,5.5,0,8.2C57.9,58.6,57.9,62.6,57.9,66.5z"/>
</g>
<polygon class="st1" points="46.4,96.2 48.3,87.4 55,79.2 54.2,73.3 55,68.5 62.3,65.5 69,70.5 70.2,74.3 81.6,75.9 89.2,80 
	90.8,85.7 91.2,91.8 91.2,95.7 "/>
<path d="M92.9,94.2c1.1,0,2.1,0,3,0c2.3,0,4.5,1.5,5.2,3.5c0.8,2.5,0.2,4.8-1.9,6.4c-1,0.8-2.2,1.2-3.5,1.2c-3.4,0-6.9,0-10.3,0
	c-2.5,0-5,0-7.5,0c-0.5,0-1,0.1-1.5,0.3c-0.7,0.4-0.9,1.1-0.8,1.9c0.2,0.7,0.7,1.3,1.4,1.5c0.3,0.1,0.6,0.1,0.8,0.1
	c2.9,0,5.9,0,8.9,0c0.3,0,0.7,0,1,0.1c0.8,0.2,1.4,1.1,1.2,1.9c-0.1,0.9-0.8,1.6-1.8,1.7c-0.5,0-1.1,0-1.6,0c-2.7,0-5.4,0-8.2,0
	c-2.5,0-4.6-1.5-5.3-3.7c-0.8-2.4-0.2-4.7,1.9-6.2c1.1-0.8,2.2-1.2,3.6-1.2c5.9,0,11.7,0,17.5,0c0.2,0,0.5,0,0.8,0
	c1-0.1,1.7-0.8,1.7-1.8c0-0.9-0.7-1.7-1.6-1.9c-0.2,0-0.5,0-0.8,0c-16,0-32.1,0-48,0c-0.1,0-0.2,0-0.3,0c-1.3,0-2-0.8-2-2.1
	c0.1-5.9,2.1-11.2,6-15.7c0.6-0.7,1.2-1.3,1.9-1.9c0.3-0.3,0.3-0.5,0.2-0.8c-2.5-6.3,2.2-13,8.9-12.7c3.9,0.2,7.3,2.9,8.3,6.6
	c0.2,0.5,0.4,0.7,0.9,0.7c1.9,0,3.9,0,5.7,0c7.8,0.2,14.6,6.2,15.6,14c0.3,2.4,0.2,4.8,0.2,7.2C92.9,93.6,92.9,93.8,92.9,94.2z
	 M89.2,94.2c0-0.1,0.1-0.2,0.1-0.2c-0.1-2.5,0.1-4.9-0.2-7.4c-0.6-5.3-5.3-9.9-10.6-10.6c-2.3-0.2-4.6-0.2-6.9-0.2
	c-0.6,0-0.9,0.2-1.1,0.8c-0.3,1.5-1.2,2.7-2.2,3.9c-0.8,0.8-1.8,0.8-2.5,0.2c-0.8-0.7-0.8-1.8-0.2-2.6c0.2-0.2,0.2-0.3,0.4-0.5
	c1.9-2.2,1.7-5.4-0.2-7.4c-1.9-2-5.2-2.2-7.3-0.5c-2.2,1.6-2.9,4.9-1.2,7.5c0.8,1.2,0.6,2.1-0.5,2.9c-3.6,2.8-6,6.4-7.2,10.8
	c-0.3,1.1-0.5,2.2-0.6,3.4c0.4,0,0.7,0,0.9,0c3.2,0,6.3,0,9.5,0c0.6,0,0.8-0.2,1.1-0.8c1.2-3.9,4.5-6.5,8.6-6.6c1,0,1.9,0.5,2,1.5
	c0.2,0.8-0.2,1.8-1.2,2.1c-0.3,0.1-0.7,0.2-1,0.2c-0.7,0.2-1.4,0.2-2,0.5c-1.4,0.6-2.3,1.6-2.9,3.2c0.3,0,0.5,0,0.6,0
	c3.2,0,6.4,0,9.6,0c0.5,0,0.7-0.1,0.8-0.6c1.1-3.9,4.7-6.7,8.7-6.8c1.3,0,2.2,1.1,1.9,2.3c-0.2,0.8-0.9,1.3-2,1.4
	c-1.3,0.1-2.5,0.5-3.4,1.4c-0.7,0.6-1.2,1.3-1.5,2.2C82.2,94.2,85.6,94.2,89.2,94.2z"/>
<path d="M57.9,88.7c0,1-0.8,1.9-1.9,1.9s-1.9-0.8-1.9-1.9c0-1,0.8-1.9,1.9-1.9C57.1,86.9,57.9,87.7,57.9,88.7z"/>
</svg>
