<?xml version="1.0" encoding="utf-8"?>
<!-- Generator: Adobe Illustrator 22.0.1, SVG Export Plug-In . SVG Version: 6.00 Build 0)  -->
<svg version="1.1" id="Capa_1" xmlns="http://www.w3.org/2000/svg" xmlns:xlink="http://www.w3.org/1999/xlink" x="0px" y="0px"
	 viewBox="0 0 128 128" style="enable-background:new 0 0 128 128;" xml:space="preserve">
<style type="text/css">
	.st0{fill:#DB00A7;}
</style>
<g>
	<path d="M39.6,16.6c0-2,0-3.9,0-5.7c0-3.3,2.2-5.7,5.6-5.7c5.5,0,11,0,16.4,0c3.4,0,5.6,2.4,5.6,5.7c0,1.8,0,3.7,0,5.6
		c0.5,0,1,0,1.4,0c5.4,0,10.7,0.1,16.1,0c3.6-0.1,6.1,2,6.9,5c0.5,1.8,1.2,3.6,1.8,5.3c1.2,3.7-0.9,6.7-4.8,6.9
		c-0.3,0-0.6,0-0.9,0.1c-0.2,2.7-0.5,5.4-0.7,8.1C86,52.6,85.2,63.3,84.3,74c-0.6,7.3-1.1,14.6-1.8,21.9c-0.4,4.4-3.6,7.6-8,8.1
		c-0.3,0-0.7,0.1-1,0.1c-13.1,0-26.2,0-39.2,0c-5,0-8.6-3.4-9.1-8.4c-0.2-2-0.3-4-0.5-5.9c-0.9-10.7-1.7-21.4-2.6-32.1
		c-0.6-7.6-1.2-15.2-1.8-22.7c-0.1-0.9-0.4-1.2-1.2-1.1c-2.3,0.2-4.2-0.4-5.4-2.5c-0.7-1.2-0.8-2.5-0.4-3.8c0.8-2.3,1.4-4.6,2.3-6.8
		c0.9-2.4,2.8-3.9,5.5-3.9c4.4-0.1,8.9,0,13.3,0C36,16.6,37.7,16.6,39.6,16.6z M81.7,33.8c-18.6,0-37.1,0-55.7,0c0,0.3,0,0.5,0,0.7
		c0.5,5.8,1,11.6,1.4,17.5c1.1,14.1,2.3,28.2,3.4,42.3c0.2,2.9,1.3,3.9,4.2,3.9c12.6,0,25.1,0,37.7,0c0.4,0,0.9,0,1.3-0.1
		c1.6-0.3,2.5-1.3,2.7-2.9c0.2-2,0.3-4,0.5-6c0.7-8.8,1.4-17.5,2.1-26.3c0.6-6.8,1.1-13.7,1.7-20.5C81.3,39.6,81.5,36.7,81.7,33.8z
		 M19.2,27.8c22.8,0,45.5,0,68.3,0c-0.5-1.4-1-2.8-1.3-4.2c-0.3-1-0.8-1.3-1.8-1.3c-20.6,0-41.3,0-61.9,0c-0.3,0-0.6-0.1-0.9,0
		c-0.2,0.1-0.6,0.2-0.6,0.5C20.3,24.5,19.8,26.2,19.2,27.8z M61.3,11c-5.4,0-10.6,0-15.8,0c0,1.9,0,3.6,0,5.5c5.3,0,10.5,0,15.8,0
		C61.3,14.7,61.3,12.9,61.3,11z"/>
	<path d="M40.7,66.2c0.4,7.4,0.8,14.8,1.2,22.2c0.1,1.2,0.2,2.3,0.2,3.5c0.1,1.7-1.1,3-2.7,3.2c-1.6,0.1-3-1-3.1-2.8
		c-0.3-4.7-0.5-9.5-0.8-14.2c-0.6-11.7-1.3-23.4-1.9-35.1c-0.1-0.9-0.1-1.8-0.1-2.8c0-1.7,1.1-3,2.7-3.1c1.7-0.1,2.9,1.2,3,2.9
		c0.5,8.5,0.9,16.9,1.4,25.4C40.6,65.7,40.6,66,40.7,66.2C40.7,66.2,40.7,66.2,40.7,66.2z"/>
	<path d="M72,66.1c-0.5,8.6-0.9,17.2-1.4,25.9c-0.1,2-1.3,3.3-3.1,3.2c-1.7-0.1-2.8-1.4-2.7-3.4c0.5-9.3,1-18.6,1.5-27.9
		c0.4-7.8,0.8-15.7,1.2-23.5c0.1-2.3,1.9-3.6,3.9-2.9c1.2,0.4,2,1.5,1.9,2.9c-0.3,5.5-0.6,11.1-0.8,16.6C72.3,59.9,72.1,63,72,66.1
		C72,66.1,72,66.1,72,66.1z"/>
	<path d="M56.3,66.2c0,8.6,0,17.1,0,25.7c0,2.3-1.6,3.6-3.6,3.1c-1.1-0.3-2-1.3-2.1-2.5c0-0.2,0-0.4,0-0.7c0-17.1,0-34.3,0-51.4
		c0-2.4,1.8-3.8,3.9-3.1c1.2,0.4,1.9,1.4,1.9,2.8c0,3.5,0,7.1,0,10.6C56.3,55.9,56.3,61.1,56.3,66.2z"/>
</g>
<polygon class="st0" points="41.4,104.7 43.9,93.2 52.6,82.6 51.6,75 52.6,68.7 62.1,64.8 70.7,71.3 72.3,76.3 87.1,78.3 97,83.7 
	99,91.1 99.6,98.9 99.6,104 "/>
<path d="M101.8,102.1c1.4,0,2.7,0,3.9,0c3,0,5.8,1.9,6.7,4.6c1.1,3.2,0.2,6.2-2.4,8.3c-1.3,1-2.9,1.5-4.6,1.5c-4.4,0-8.9,0-13.3,0
	c-3.2,0-6.5,0-9.7,0c-0.6,0-1.3,0.1-1.9,0.4c-0.9,0.5-1.2,1.4-1,2.4c0.2,0.9,0.9,1.7,1.8,1.9c0.4,0.1,0.8,0.1,1.1,0.1
	c3.8,0,7.7,0,11.5,0c0.4,0,0.9,0,1.3,0.1c1.1,0.3,1.8,1.4,1.6,2.4c-0.1,1.2-1,2.1-2.3,2.2c-0.7,0-1.4,0-2.1,0c-3.5,0-7,0-10.6,0
	c-3.2,0-6-1.9-6.9-4.8c-1-3.1-0.2-6.1,2.5-8.1c1.4-1.1,2.9-1.5,4.7-1.5c7.6,0,15.2,0,22.7,0c0.3,0,0.7,0,1,0
	c1.3-0.1,2.2-1.1,2.2-2.3c0-1.2-0.9-2.2-2.1-2.4c-0.3,0-0.7,0-1.1,0c-20.8,0-41.6,0-62.3,0c-0.1,0-0.3,0-0.4,0c-1.7,0-2.6-1-2.6-2.7
	c0.1-7.7,2.7-14.5,7.8-20.3c0.8-0.9,1.6-1.7,2.4-2.4c0.4-0.4,0.4-0.6,0.2-1.1c-3.3-8.2,2.9-16.9,11.6-16.5c5,0.2,9.5,3.8,10.8,8.6
	c0.2,0.7,0.5,0.9,1.2,0.9c2.5,0,5,0,7.4,0c10.1,0.3,18.9,8.1,20.2,18.1c0.4,3.1,0.3,6.2,0.3,9.3
	C101.8,101.3,101.8,101.6,101.8,102.1z M96.9,102.1c0-0.1,0.1-0.2,0.1-0.3c-0.1-3.2,0.1-6.4-0.3-9.6c-0.8-6.9-6.9-12.9-13.8-13.7
	c-3-0.3-6-0.2-9-0.3c-0.8,0-1.2,0.2-1.4,1c-0.4,1.9-1.5,3.5-2.9,5c-1,1-2.3,1.1-3.3,0.2c-1-0.9-1.1-2.3-0.2-3.4
	c0.2-0.2,0.3-0.4,0.5-0.6c2.4-2.8,2.2-7-0.3-9.6c-2.5-2.6-6.7-2.9-9.5-0.6c-2.8,2.1-3.7,6.3-1.5,9.7c1,1.6,0.8,2.7-0.6,3.8
	c-4.7,3.6-7.8,8.3-9.3,14c-0.4,1.4-0.6,2.8-0.8,4.4c0.5,0,0.9,0,1.2,0c4.1,0,8.2,0,12.3,0c0.8,0,1.1-0.2,1.4-1
	c1.5-5,5.9-8.4,11.1-8.6c1.3,0,2.4,0.7,2.6,1.9c0.2,1.1-0.3,2.3-1.5,2.7c-0.4,0.1-0.9,0.2-1.3,0.2c-0.9,0.2-1.8,0.3-2.6,0.6
	c-1.8,0.8-3,2.1-3.7,4.1c0.4,0,0.6,0,0.8,0c4.1,0,8.3,0,12.4,0c0.6,0,0.9-0.1,1-0.8c1.4-5.1,6.1-8.7,11.3-8.8c1.7,0,2.9,1.4,2.5,3
	c-0.3,1.1-1.2,1.7-2.6,1.8c-1.7,0.1-3.2,0.7-4.4,1.8c-0.9,0.8-1.6,1.7-1.9,2.9C87.8,102.1,92.3,102.1,96.9,102.1z"/>
<path d="M56.3,95c0,1.3-1.1,2.4-2.4,2.4c-1.3,0-2.4-1.1-2.4-2.4c0-1.3,1.1-2.4,2.4-2.4C55.3,92.6,56.3,93.7,56.3,95z"/>
</svg>
