<svg id="Capa_1" data-name="Capa 1" xmlns="http://www.w3.org/2000/svg" viewBox="0 0 1039.45 599.39"><defs><style>.cls-1{fill:#da007f;}</style></defs><path d="M814.93,465.39a22.26,22.26,0,0,0-.11-2.3,2.82,2.82,0,0,0-1-2,15.84,15.84,0,0,0-7.87-3.6c-1.45-.2-1.47-.24-1.47-1.69,0-12.71.07-25.41,0-38.12,0-6.07.38-12.15-.42-18.2-.48-3.59-.79-7.19-2.32-10.58-.94-2.1-2-4.15-2.94-6.24a98.87,98.87,0,0,0-7.48-13.51c-4.73-7.18-11.12-12.63-17.93-17.68-2.64-1.95-5.58-3.44-8.22-5.37-4.32-3.16-9.26-4.87-14.29-6.19a45.11,45.11,0,0,0-9.63-1.8,17.71,17.71,0,0,1-3.87-.84c-1.74-.47-3.35-1.37-5.24-1.35-4.68.07-9.36,0-14,0a5.36,5.36,0,0,0-1.66.2c-4.13,1.5-8.53,2-12.7,3.36-3.31,1.11-6.56,2.31-9.78,3.61a57.45,57.45,0,0,0-9.69,5.34,53.75,53.75,0,0,0-13.89,12.59,174,174,0,0,0-11.52,17.19A56.34,56.34,0,0,0,653,391.14c-.58,2-.82,4.1-1.56,6.05a12.86,12.86,0,0,0-.74,4.72q0,13.09,0,26.18,0,13.41,0,26.82c0,2.41-.12,2.61-2.41,2.58a9.42,9.42,0,0,0-6.08,2.44,6,6,0,0,0-2.42,5.28c.08,2.23,0,4.47,0,6.7V580.84a21.45,21.45,0,0,0,.27,4.38c.37,1.74,1.69,2.87,2.68,4.18.68.88,2,.56,3,.56H810.15a4.29,4.29,0,0,0,2.52-.77c1.85-1.25,2.29-2.92,2.29-5Q814.9,524.77,814.93,465.39Zm-42.32-10.21c0,2.17-.2,2.33-2.68,2.33H686c-3,0-3,0-3-3.08,0-15.78.06-31.56,0-47.33a31.94,31.94,0,0,1,2.41-11.81,68.61,68.61,0,0,1,4.24-8.6,33.23,33.23,0,0,1,8.78-9.74,48.47,48.47,0,0,1,14.75-7.67c2.55-.86,5.23-.78,7.85-1,2.22-.2,4.45-.07,6.68-.38a19.08,19.08,0,0,1,6.84.71,88.86,88.86,0,0,1,10.5,2.82,22.49,22.49,0,0,1,6.41,3.46c3.05,2.43,6.07,4.91,9.09,7.38s4.75,6,6.56,9.35c1.15,2.15,2.16,4.38,3.2,6.58a22,22,0,0,1,2.34,9.25C772.66,423.34,772.63,439.26,772.61,455.18Z" transform="translate(-98.53 -64.31)"/><path class="cls-1" d="M727.07,461.66H648.51c-3.35,0-4.52,1.08-5,4.5a33.43,33.43,0,0,0-.34,5q0,7.33,0,14.67v94.9a16.22,16.22,0,0,0,.07,2.09c.41,3.22,2.51,5,5.79,5l3.56,0h149c1.33,0,2.65,0,4,0a8,8,0,0,0,4.16-1.23,2.81,2.81,0,0,0,1.5-2.35c.14-2.37.37-4.74.38-7.11q0-54.57,0-109.14a14.51,14.51,0,0,0-.22-2.71,3.76,3.76,0,0,0-2.06-2.72,8.4,8.4,0,0,0-4.25-.83Z" transform="translate(-98.53 -64.31)"/><path class="cls-1" d="M654.84,427.87h0v18.64c0,2.87,0,5.73-.05,8.59-.06,2.39-.13,2.4,2.32,2.41h9.42c3.49,0,7,0,10.48,0,1.75,0,1.9-.25,1.81-2,0-.63-.06-1.26-.06-1.89q0-24.3,0-48.6a9.64,9.64,0,0,1,.14-2.29,54.23,54.23,0,0,1,3-8.68,100.24,100.24,0,0,1,4.88-9.44,38.15,38.15,0,0,1,11-11.63,54.77,54.77,0,0,1,9.4-5.4,28.34,28.34,0,0,1,7.44-2.69c2.41-.38,4.84-.63,7.25-1a24.16,24.16,0,0,1,9-.05c5.62,1.23,11.33,2.2,16.61,4.73a37.25,37.25,0,0,1,6.31,3.67c2.84,2.13,5.61,4.38,8.31,6.69a31.26,31.26,0,0,1,6.6,7.52,102.76,102.76,0,0,1,5,9.9,32.09,32.09,0,0,1,2.91,14.21c-.12,14.73,0,29.47,0,44.2,0,2.66.08,2.74,2.66,2.75H798c.35,0,.7,0,1,0,1.21-.14,1.41-.37,1.4-1.59s-.09-2.65-.09-4c0-13.27-.12-26.54,0-39.8a116.09,116.09,0,0,0-1.4-19.18,7.07,7.07,0,0,0-.62-2c-1.2-2.59-2.23-5.26-3.47-7.84A94.1,94.1,0,0,0,787,369.36a60.32,60.32,0,0,0-10.7-11.13c-4.6-3.89-9.75-7-14.83-10.15s-11.24-4.59-17.19-5.62c-3.76-.65-7.54-1.35-11.33-1.88s-7.7-1.33-11.57-.08a2.21,2.21,0,0,1-.63.05,72.49,72.49,0,0,0-10.16,1.16,82,82,0,0,0-12,3.61,54.07,54.07,0,0,0-9.38,4.55c-7.2,4.2-13.49,9.3-18.21,16.32-3.65,5.45-7,11.09-10.51,16.6a26.38,26.38,0,0,0-1.91,4.18,80.71,80.71,0,0,0-3,9.77,19.22,19.22,0,0,0-.67,5.15Q654.86,414.88,654.84,427.87Z" transform="translate(-98.53 -64.31)"/><path d="M721.09,546c0-3.63,0-7.26,0-10.88a4.37,4.37,0,0,0-1.57-3.69,19.85,19.85,0,0,1-2.46-2.56,9.85,9.85,0,0,1-2.31-6.1,15.7,15.7,0,0,1,2.58-9.49,8.72,8.72,0,0,1,2.7-2.54c3.67-2.39,7.71-2.69,11.88-2.21a7.91,7.91,0,0,1,4.75,2.88,14.56,14.56,0,0,1,4.12,10c0,2.29.17,4.58-1.28,6.64a11.39,11.39,0,0,1-3.1,3.34,2.5,2.5,0,0,0-1.28,3,12.62,12.62,0,0,1,.19,3.13c0,6.42-.11,12.84.06,19.26.07,3-1.39,5-3.54,6.71a5,5,0,0,1-6.53.37c-2.55-1.69-4.25-3.76-4.24-7,0-3.63,0-7.26,0-10.89Z" transform="translate(-98.53 -64.31)"/><path d="M736.19,521.77a9.25,9.25,0,0,0-1.07-5.42c-1-1.83-2.19-3.52-4.37-3.84a14.13,14.13,0,0,0-6.43.34c-1.78.57-3.64,1.14-4.64,2.95a13.69,13.69,0,0,0-1.28,9.13,4.1,4.1,0,0,0,.79,1.69,16,16,0,0,0,3.19,3.28,5.43,5.43,0,0,1,2.32,4.7c-.46,4.81-.12,9.61-.23,14.42a16.44,16.44,0,0,0,.17,2.71,11.64,11.64,0,0,1,0,3.95,5.51,5.51,0,0,0,.15,3.09,3.18,3.18,0,0,0,5.42.94,3.36,3.36,0,0,0,.54-2.38c0-7.32,0-14.64,0-22,0-5.4.33-4.76,3.46-7.13a4.7,4.7,0,0,0,2-4.12C736.17,523.5,736.19,522.87,736.19,521.77Z" transform="translate(-98.53 -64.31)"/><path d="M1073.6,465.78c.16.64.64.73,1,.94,1.15.67,2.31,1.3,3.43,2a1.84,1.84,0,0,1,.91,2.26c-.25.95-1,1.12-1.79,1.13a8.08,8.08,0,0,1-3.58-.44.65.65,0,0,0-.32-.09c-2.16.14-3.9-1-5.75-1.85a34,34,0,0,0-8.84-2.68,7.42,7.42,0,0,1-3.65-1.48,11.79,11.79,0,0,0-7.1-2.39,25.68,25.68,0,0,1-5.18-1,3.22,3.22,0,0,1-1.68-1.29,12.07,12.07,0,0,0-5-4,3.93,3.93,0,0,1-2.19-2.38,10.49,10.49,0,0,0-4.23-5.14,7.53,7.53,0,0,1-2.86-3.58,25.73,25.73,0,0,0-4-6.48,18.79,18.79,0,0,1-4.32-12.56,21.24,21.24,0,0,0-.87-5.69,7.17,7.17,0,0,0-1.73-3,5.74,5.74,0,0,1-1.44-3.79,8.22,8.22,0,0,1,0-1,21.61,21.61,0,0,0-1.89-10.17,19.14,19.14,0,0,1-1-8.95,7.2,7.2,0,0,1,2.1-4.58,4,4,0,0,0,1.16-3.15c-.06-1.71,0-3.43,0-5.14a7.62,7.62,0,0,1,.34-2.46,7.69,7.69,0,0,0-.57-6.11,17.63,17.63,0,0,1-1.71-6,4.69,4.69,0,0,1,.29-2.44,24.35,24.35,0,0,1,1.45-3.15,40.71,40.71,0,0,1,2.78-4.12c1.87-2.43,2.9-2.54,5.34-.75a.32.32,0,0,0,.33-.29,31.11,31.11,0,0,1,.74-5.08,8.6,8.6,0,0,1,.82-2.51,3.36,3.36,0,0,0,.05-3,7.31,7.31,0,0,1-.59-3.39c0-2,0-4,0-6a12.61,12.61,0,0,0-.79-4.38c-.16-.46-.26-1-.87-1.09s-.9.56-1.13,1a7,7,0,0,0-.13,5.17,15.21,15.21,0,0,1,.65,4.74,5,5,0,0,1-3.15,4.49c-1.54.78-4.69-.18-5.66-1.62a2.63,2.63,0,0,1-.37-2.22c.88-3.14,1.19-6.4,2.18-9.51a7.31,7.31,0,0,0,.32-2.45,80.46,80.46,0,0,1,.89-14,60,60,0,0,0,.43-6.44c.06-1.32.13-2.64.27-4a19.46,19.46,0,0,0-.2-6.59c-.78-3.34-.84-6.8-1.87-10.09a5.54,5.54,0,0,0-.21-.8c-2-4.15-1.36-8.57-1.16-12.89a15.6,15.6,0,0,1,2.92-7.67,12.17,12.17,0,0,0,2.26-7.79,36.75,36.75,0,0,1,.73-8.56,17.82,17.82,0,0,1,.69-2.55c.88-2.72,1.35-5.59,2.68-8.15a23.4,23.4,0,0,0,1.76-4.27,17.42,17.42,0,0,0,.64-4.08,92,92,0,0,0,0-10.1c-.14-2.29-.93-4.43-1.21-6.67s-1.11-4.61-1.24-7a22,22,0,0,1,2-10.28,10.86,10.86,0,0,0,.27-7.16,16.72,16.72,0,0,1,.15-9.95,24,24,0,0,0,.79-5.39c.57-4.94,1.26-9.86,1.47-14.83a32.24,32.24,0,0,1,.58-3.76c.56-3.41.31-6.84.34-10.26a30.94,30.94,0,0,1,.6-6.92,18.91,18.91,0,0,0,.39-4.45c0-3.37.08-6.74,0-10.11a12.59,12.59,0,0,1,1-5.13,17.55,17.55,0,0,0,1.26-6.11c.11-6.3.21-12.6,0-18.89a45.07,45.07,0,0,0-1.12-9.51c-.79-3.09-1.32-6.25-2-9.37a3,3,0,0,1,.66-2.78c1-1.11,1.92-2.19,3.67-2.23,1.51,0,1.93-.89,1.47-2.41a3.59,3.59,0,0,1-.17-2,3.2,3.2,0,0,1,5.59-1.58c.6.57,1.18,1.17,1.73,1.79a4,4,0,0,1,1.17,2.84,2.6,2.6,0,0,0,.93,2.2,7.82,7.82,0,0,1,2.19,3.45,3.61,3.61,0,0,0,2.59,2.52c2.65.69,3.64,2.84,2.64,5.42a8,8,0,0,1-1.63,2.87,1.49,1.49,0,0,0-.31,2c.81,1.39.46,2.59-.35,3.86-1.14,1.81-1,2.33.3,4,1.49,1.92,2.92,3.88,4.56,5.68,1.25,1.37,1.46,3.24,1.61,5a19.87,19.87,0,0,0,1.09,4.64,15.06,15.06,0,0,1,1,5.33,9.26,9.26,0,0,0,.11,1.49c.28,1.94.58,2.11,2.32,1.31.55-.26,1.09-.54,1.66-.76a3.41,3.41,0,0,1,2-.21,2.58,2.58,0,0,1,2.27,2.63,1.22,1.22,0,0,1,0,.33c-.52,3-.68,6.13-2.15,8.94a5.75,5.75,0,0,1-1.74,2.18,39.85,39.85,0,0,0-5.85,5.08,14.54,14.54,0,0,1-2.94,2.41,1.93,1.93,0,0,0-1,1.8,24.71,24.71,0,0,0,1.08,7.34c.27.9.6,1.78.81,2.69a4.31,4.31,0,0,1-.15,2.77c-1,2.21-.62,4.45-.08,6.64a3.35,3.35,0,0,1-.28,2.69c-.85,1.44-1.75,2.81-3.58,3.19-.76.16-1.14.83-1.44,1.5-1.31,2.86-2.67,5.7-3.88,8.6-.68,1.62-1,3.37-1.66,5s-1.41,3.59-2.25,5.33a4.6,4.6,0,0,0-.27,3.54c.1.31.2.63.31.94a11.24,11.24,0,0,1,0,6.79,37.27,37.27,0,0,1-3.78,9.48,8,8,0,0,0-.33,7.17c1.09,2.88,1.73,5.92,3.2,8.67a17.35,17.35,0,0,0,1.44,2.42,14,14,0,0,1,2.6,8.85,6.37,6.37,0,0,1-1.63,4.4,3.73,3.73,0,0,0-1,2.88,24.7,24.7,0,0,1-.34,4.78,10,10,0,0,1-.9,3,5.15,5.15,0,0,0-.42,3.85c.2.69.32,1.4.47,2.11a7.63,7.63,0,0,1-.66,5.13,44.72,44.72,0,0,1-3.46,6.39c-1.59,2.29-1,4.57.17,6.72a5.81,5.81,0,0,1,.87,3.27,19.06,19.06,0,0,0,1.49,8.56,3.11,3.11,0,0,1-1,3.87c-.29.25-.64.43-.93.68-1.5,1.3-2.85,2.51-3.15,4.79a46.27,46.27,0,0,0-.47,5.74c0,2.1,0,4.2,0,6.3a24.75,24.75,0,0,0,.46,5.43,8.75,8.75,0,0,1-.31,5.23,2.61,2.61,0,0,0,.35,2.79,5.88,5.88,0,0,1,.22,7.1,7.08,7.08,0,0,0-1.05,3.45,3.07,3.07,0,0,0,.92,2.71,2.18,2.18,0,0,1,.74,1.78,14,14,0,0,0,1.55,6.05,13,13,0,0,1,1.41,5.38c0,.77.35,1,1.12,1,2.16.13,3.13,1.48,2.7,3.59s-.76,2.56-3.39,3.5c-.13.34.11.52.32.68,1.89,1.44,2,3.45,1.39,5.41a11.18,11.18,0,0,0-.39,4.89c.31,2.47.4,4.95.58,7.43a13.33,13.33,0,0,1,.15,3.79,24.14,24.14,0,0,1-1.44,4.22c-.3.71-.64,1.41-1,2.1a12.87,12.87,0,0,0-1.2,7.89c.49,3-.61,5.65-2,8.22-.81,1.5-2,2.8-2.45,4.49a5.27,5.27,0,0,0,0,3.57,9,9,0,0,1,.3,3.61,10.53,10.53,0,0,0,.58,3.9c.43,1.18.59,1.27,1.59.54a4.28,4.28,0,0,1,2.91-1,2.72,2.72,0,0,1,2,.94,7.2,7.2,0,0,1,1.82,4.35c0,1.32,0,2.65,0,4a3.19,3.19,0,0,0,.74,2.14l1.88,2.31c.88,1.1,2,1,3.18.64a14.35,14.35,0,0,1,5.55-.71c1.93.18,3.85.3,5.78.36a4,4,0,0,1,3.78,3.33c.14.62.24,1,1,.87a3.14,3.14,0,0,1,3.85,3.17,46.85,46.85,0,0,1,0,5.3c-.16,1.94.48,3.71.83,5.54a19.13,19.13,0,0,0,3,7.8,2.78,2.78,0,0,0,1.34,1.15c1.19.42,2.38.87,3.57,1.3a8.72,8.72,0,0,1,3.15,2.1,2.47,2.47,0,0,1,.77,3,3.28,3.28,0,0,1-2.86,2.19C1075.24,465.79,1074.44,465.78,1073.6,465.78Z" transform="translate(-98.53 -64.31)"/><path class="cls-1" d="M1075.41,470a2.79,2.79,0,0,0-1.51-1.19,10.15,10.15,0,0,1-2.53-1.86c-1.26-1.18-1-2.3.53-3.1a4.33,4.33,0,0,1,2.08-.43,11.5,11.5,0,0,0,1.66,0,.83.83,0,0,0,.55-1.45,3.58,3.58,0,0,0-1.76-1.19c-1.06-.34-2.11-.66-3.16-1a4.25,4.25,0,0,1-2.66-1.84c-1.32-2.46-3-4.7-3.57-7.57-.87-4.07-1.84-8.07-1.34-12.27.16-1.31-.21-1.55-1.53-1.16s-1.73.19-2.33-.87a5.68,5.68,0,0,1-.55-1.38c-.5-2.1-.72-2.28-2.89-2.32a48.25,48.25,0,0,1-5-.16,9.07,9.07,0,0,0-4.08.4,9.83,9.83,0,0,1-1.94.4,3.83,3.83,0,0,1-3.68-1.42c-.83-1-1.76-2-2.53-3.05a5.67,5.67,0,0,1-1.17-3.72c.07-1.11,0-2.21,0-3.32a4,4,0,0,0-.61-2.21,1.4,1.4,0,0,0-2.1-.59,8.4,8.4,0,0,0-.84.53c-1.88,1.3-3.52.88-4.32-1.25a12.55,12.55,0,0,1-1.09-5.32,6.29,6.29,0,0,0-.17-3,6.8,6.8,0,0,1,.12-5.15,16.62,16.62,0,0,1,1.71-3.2,20.32,20.32,0,0,0,1.82-3.53c.83-2.2.58-4.49.4-6.73a10.33,10.33,0,0,1,.55-4.22,24.62,24.62,0,0,1,1.34-3.39c1.25-2.49,2.22-5,1.89-7.93-.27-2.3-.33-4.62-.62-6.92s-.49-4.59.56-6.81a2.58,2.58,0,0,0-1.08-3.46,2.31,2.31,0,0,1-1.13-2.55,2.68,2.68,0,0,1,2.16-2,4.58,4.58,0,0,0,.64-.15,2,2,0,0,0,.58-.3.94.94,0,0,0,.35-1c-.11-.36-.44-.46-.78-.5s-.44,0-.66,0a2.55,2.55,0,0,1-2.35-1.8,5,5,0,0,1-.36-2.27,8.57,8.57,0,0,0-.79-3.86,18.51,18.51,0,0,1-1.9-6.64,2.35,2.35,0,0,0-.64-1.33,4.91,4.91,0,0,1-1-3.57,7,7,0,0,1,1.06-3.8c1.55-2.27,1.28-4.27-.19-6.38a3.61,3.61,0,0,1-.32-3.5,8.3,8.3,0,0,0,.25-4.9,23.65,23.65,0,0,1-.47-5.43c0-2.76.06-5.53,0-8.29-.08-2.26,1-4.29,1.15-6.49a1,1,0,0,1,.3-.58,37.34,37.34,0,0,1,3.43-3.57c1.07-.83,1.08-1,.62-2.2a17.29,17.29,0,0,1-1.44-6.43,15.83,15.83,0,0,0-1.16-6.27,7.71,7.71,0,0,1,1-7.95,34.7,34.7,0,0,0,2.28-4.41,9,9,0,0,0,.49-6.76,6.72,6.72,0,0,1,.46-5,6.65,6.65,0,0,0,.82-2.67c.1-1.71.46-3.39.39-5.12a3.35,3.35,0,0,1,.87-2.61,6.36,6.36,0,0,0,1.78-5.62,11.34,11.34,0,0,0-1.85-5.9,25.77,25.77,0,0,1-2-3.07c-2-3.67-2.92-7.73-4-11.72a5.61,5.61,0,0,1,.2-3.26,46.37,46.37,0,0,1,2.77-6.19,8.89,8.89,0,0,0,1.12-3.1,13.72,13.72,0,0,1,.71-3,7.65,7.65,0,0,0-.18-5.51,5.61,5.61,0,0,1,.09-5.09,61.56,61.56,0,0,0,2.67-6.06,61,61,0,0,1,2.75-7.25c.31-.59.48-1.23.73-1.84a23.18,23.18,0,0,1,3.16-6.16,2.79,2.79,0,0,1,1.61-1.07c2-.44,2.59-1.66,2.09-3.62a10,10,0,0,1,.1-6.35,4.34,4.34,0,0,0,.08-3.51c-1.14-2.8-1.29-5.79-1.77-8.72a4.24,4.24,0,0,1,2.45-4.64,10.45,10.45,0,0,0,2.47-1.92,20.26,20.26,0,0,1,5.17-4.59,5.08,5.08,0,0,0,1.92-2.44c1.06-2.12.9-4.52,1.54-6.74a1,1,0,0,0,0-.17c0-1.11-.46-1.4-1.47-1-.66.28-1.27.68-1.94.94-2.53,1-4.61-.27-4.84-3a20.69,20.69,0,0,1,0-2.49,12.37,12.37,0,0,0-.78-4.38,24.65,24.65,0,0,1-1.25-5.45,6.1,6.1,0,0,0-1.29-3.87c-1.64-1.79-3-3.79-4.57-5.67-1.83-2.26-2-3.72-.38-6.1a1.78,1.78,0,0,0,.17-2.28c-1-1.3-.74-2.4.4-3.5a5.81,5.81,0,0,0,1.66-3.2c.2-1.17-.06-1.64-1.21-1.92a5.15,5.15,0,0,1-2.25-1.33,6,6,0,0,1-1.6-2.67,5.82,5.82,0,0,0-2.42-3.25,2,2,0,0,1-1.06-2.1c.31-2-.93-3.06-2.14-4.2-.33-.31-.68-.65-1.16-.4a1.26,1.26,0,0,0-.72,1.37,8,8,0,0,0,.31.94c.7,2.38-.25,4-2.67,4.61-.37.09-.76.08-1.14.15a2,2,0,0,0-1.83,2,12.61,12.61,0,0,0,.3,3.29c.4,1.49.74,3,1.11,4.5a72.09,72.09,0,0,1,1.61,16.11q.11,6.56,0,13.1a25.45,25.45,0,0,1-1.3,7.79,16.8,16.8,0,0,0-1,6c.08,2.93,0,5.86,0,8.79,0,1-.14,2-.21,3-.28,3.52-.94,7-.82,10.56.08,2.32-.05,4.63-.2,6.95s-.68,4.38-.73,6.58c-.1,4.15-.94,8.22-1.21,12.36a72.8,72.8,0,0,1-1.9,10.23,9,9,0,0,0,.1,3.76,34.34,34.34,0,0,1,1,4.52,15,15,0,0,1-1.73,8,9.78,9.78,0,0,0-1,4.15c-.17,4.63.93,9.07,2,13.51a6.8,6.8,0,0,1,.3,1.45c0,2.54.44,5.07.31,7.61-.06,1.22-.24,2.43-.21,3.64a17.55,17.55,0,0,1-2.44,9.65,7.55,7.55,0,0,0-.67,1.51c-1.77,5.66-3.45,11.32-3,17.37a11.78,11.78,0,0,1-.43,3.43,17.52,17.52,0,0,1-2.41,5.07A21.82,21.82,0,0,0,1016,274c-.58,2.18-.34,4.39-.48,6.59a17.45,17.45,0,0,0,1.21,7.11,27.65,27.65,0,0,1,1.47,6.11,36.27,36.27,0,0,0,.88,5.39,14.67,14.67,0,0,1,.4,3.62c0,1.61-.35,3.18-.35,4.79a107.09,107.09,0,0,1-.9,10.88,75.69,75.69,0,0,0-.73,11.05c0,.67,0,1.33,0,2a4.19,4.19,0,0,1-.33,1.79c-.72,1.58-.78,3.32-1.2,5-.27,1.06-.43,2.16-.69,3.23-.18.75-.29,1.57.61,2a2.36,2.36,0,0,0,3.52-1.94,13.93,13.93,0,0,0-.61-4.57c-.76-2.91-.53-5.69,1.52-8.1a2.46,2.46,0,0,1,3.89-.13,3,3,0,0,1,.59.79,12.54,12.54,0,0,1,1.65,5.83c-.06,1.82,0,3.65,0,5.47a10.44,10.44,0,0,0,.63,4.39,4,4,0,0,1,0,3.38,17.9,17.9,0,0,0-1.61,7.86,5,5,0,0,1-.2,1.8,1.67,1.67,0,0,1-2.87.79c-.3-.25-.55-.55-.83-.81-1.13-1.08-1.63-1.08-2.52.16a34.52,34.52,0,0,0-3.54,6.16,3.6,3.6,0,0,0-.25,2,14.1,14.1,0,0,0,1.53,5.36,9.72,9.72,0,0,1,.85,7.24,17.23,17.23,0,0,0-.47,4.09c0,1.27,0,2.55,0,3.82a3.92,3.92,0,0,1-1.3,3.26,5.52,5.52,0,0,0-1.52,2.69,15,15,0,0,0,.51,9.44c1.22,3.57,2.38,7.11,2,11a5,5,0,0,0,1.27,3.84,11.52,11.52,0,0,1,2.28,4.92,26.78,26.78,0,0,1,.72,6.74,12.64,12.64,0,0,0,1.33,5.75c1.1,2.39,2.87,4.31,4.37,6.42a13.15,13.15,0,0,1,1.84,3.32,5.88,5.88,0,0,0,2.23,3,13.75,13.75,0,0,1,5.09,6.17,2.17,2.17,0,0,0,1.21,1.29,11.21,11.21,0,0,1,4.62,3.68,6.34,6.34,0,0,0,4.46,2.19c.6.09,1.22,0,1.82.07,2.35.36,4.74.69,6.73,2.06a11.69,11.69,0,0,0,4.86,2,24.74,24.74,0,0,1,8.91,3C1070.69,469.05,1073,469,1075.41,470Z" transform="translate(-98.53 -64.31)"/><path d="M572,247.26c-.7-1.1-1.38-2.12-.87-3.64,1.87-5.58.66-9.22-4.28-12.91-1.29-1-1.35-1.64-.12-2.57.56-.43,1-1,1.61-1.36,3.61-2.29,4.43-6,4-9.67-.88-7.23-7.12-10.08-13.78-10-1.83,0-2.13-.27-2.39-1.93-.64-4.11-3.36-6.4-7.22-6.13-1.59.11-2-.18-2.18-1.79-.45-4-3-6.44-7.24-7.18-1.14-.2-1-1-1.24-1.68-1.32-4.51-3.91-6.75-8.37-7.11a12.94,12.94,0,0,0-3.39.3c-1.57.31-2.49,0-3.14-1.69a5,5,0,0,0-5.56-3.54c-2.29.27-2.3-.61-1.74-2.37.79-2.49.86-5-1.57-6.66s-3-3.8-3.15-6.48c-.29-4.4-2.34-6.61-6.38-7.14-1-.12-1.09-.76-1.4-1.32-2.51-4.53-5.46-6-10.58-5.11a3.48,3.48,0,0,1-3.73-1.34c-6.07-6.54-9.75-7.87-17-4.17a2.9,2.9,0,0,1-2.93-.26c-3.87-1.84-7.84-1.92-11.24.63-2.65,2-5,3.62-8.44,2.26-.35-.15-.86.08-1.29.15a3,3,0,0,1-3.74-1.91c-2.57-5.31-5.88-6.6-11.62-4.9-.75.22-1.36.53-2.09-.3-3.4-3.86-7.61-4.61-12.12-2a5.16,5.16,0,0,1-4.42.54c-4.71-1.38-7.15-.6-10,3.4a3.46,3.46,0,0,1-3,1.6c-4.19.23-5.75,1.9-5.82,6.12a2.25,2.25,0,0,1-1.63,2.52c-3.23,1.27-4.39,3.42-4,6.85a2.24,2.24,0,0,1-.93,2.44c-4.11,3.12-4.34,4.21-1.93,8.79.85,1.62.88,2.26-1.28,2.25-12.19-.06-24.38,0-36.57,0-6.06,0-12.12,0-18.19-.16-8.85-.2-17.71.08-26.56.22-1.53,0-2.53-.32-2.85-2a4.59,4.59,0,0,0-2.88-3.22c-.84-.39-1.54-.84-1.69-1.84a5.54,5.54,0,0,0-4.12-4.4c-2.24-.75-2.56-2.05-2.64-4.1-.17-4.24-2.84-6.44-6.94-5.86a2,2,0,0,1-2.24-.86c-2-2.68-4.46-3.17-7.41-1.73-.58.28-1.33.93-1.89.12-2.28-3.33-4.69-1.73-7-.16-1.3.89-1.95.59-2.76-.58-1.28-1.86-3-3.8-5.29-3.43-4.42.73-6.24-2.06-8.66-4.78-3.31-3.71-8.72-2.52-10.78,2a11.51,11.51,0,0,0-1.21,4.28c-.09,2-1,2.9-3.17,2.83-3.86-.13-7.94,2.5-11.5-1-3.47,1-6.89-.15-10.3-.15-3.66,0-7.13,2.48-11.08,1.9a3.36,3.36,0,0,0-1.92.8,4.49,4.49,0,0,1-3.71.48c-3.62-.76-8.74,1.22-9.47,4.72-.38,1.8-1.43,2.2-3.19,2.27a9.17,9.17,0,0,0-8.08,5,13.7,13.7,0,0,0-1.35,8.64c.09.74.47,1.57-.53,2.08a1.83,1.83,0,0,1-2.2,0,5.15,5.15,0,0,0-3.72-1c-1.22.1-1.78-.47-2.31-1.61a7.46,7.46,0,0,0-9.32-3.74c-3.33,1.36-6.58,5.61-4.34,9.57.61,1.08.43,1.65-.72,2.26a6.27,6.27,0,0,0-3.65,5.43c0,1.76-.74,1.93-2.2,2-2.26.09-5,0-6.26,2.06s-2.74,2.67-5,2.64a2.5,2.5,0,0,0-2.52,2.82c.08,1.68-.59,1.85-2.1,2-6.82.59-10.38,5.35-9.47,12.42a1.32,1.32,0,0,1-.63,1.54c-2.39,1.39-2.63,3.48-2,5.91.22.87.48,1.63-.63,2.47-5.41,4.09-5,9.78,1,13.33,1.25.76,2.22,1.25.28,2.4a6.34,6.34,0,0,0-2.68,3.8,14.94,14.94,0,0,0,.23,9.3c.22.62,1,1.45.24,1.88-2.39,1.37-3.52,4.13-7,4.51-7,.78-10.1,7.24-7,13.52.93,1.84,2.2,3.31.09,5.17-.64.56-.37,1.67-.23,2.54a10.75,10.75,0,0,0,4.9,7.49,2.25,2.25,0,0,1,1.12,3c-.61,1.84-1.08,4.27.41,5.52,2.4,2,2.53,4.54,3,7.17.68,3.7,2.35,5.08,6.1,5.28a3.06,3.06,0,0,1,2.51,1.08,6.06,6.06,0,0,0,9.62-.53c.66-1,1.1-.76,2.06-.66,4.64.46,7.53,4.11,11.27,6.12,6.62,3.55,11.39,9.24,14.68,16.09a21.4,21.4,0,0,0,11.2,11,57.27,57.27,0,0,1,5.27,3c4.32,2.39,6.81,6.08,8.38,10.71a69.21,69.21,0,0,1,2.71,12.84c.78,5.69,2.65,11.07,4.55,16.44.35,1,.28,1.63-.79,2.09-4.35,1.85-5.67,5.73-6.37,9.91-.25,1.48-.57,2.17-2.3,1.93-1.93-.26-3.9.3-4.42,2.43-.41,1.65-1.27,2-2.71,2.23A19.76,19.76,0,0,0,156.48,405a3,3,0,0,1-2.81,1.43c-3.81.29-5.57,2.78-4.83,6.54a7.43,7.43,0,0,0,1.49,3.33,3.87,3.87,0,0,1,.84,3.41,9.74,9.74,0,0,0,2.61,9.18,2.1,2.1,0,0,1,.8,1.86,5.33,5.33,0,0,0,1.77,5,1.85,1.85,0,0,1,.59,1.9c-.72,3.25.37,6.06,2.15,8.66a2.79,2.79,0,0,1,.5,2.67c-.69,2.12.15,3.7,1.84,5,2,1.53,3.91,1.3,5.91.25,1.59-.84,3-1.38,4.08.78a3.46,3.46,0,0,0,2.36,1.57,2.12,2.12,0,0,1,1.76,1.94c1,5.22,1.11,4.9,6.46,5.28,9.3.65,18.62.74,27.9.64,17.39-.18,34.77,0,52.15-.05,5.69,0,11.41.44,17.08.11,7.9-.46,15.78,0,23.68-.15s15.93.53,23.87.16c11.15-.51,22.29,0,33.43-.15,18-.23,36,.1,53.94.08,18.75,0,37.51-.37,56.26.28,1,0,1.94-.31,2.05-1.24.39-3.09,2.35-4.84,4.83-6.26a1.9,1.9,0,0,0,.81-1c.59-1.9,1.53-1.23,2.71-.55,2.67,1.53,5.54,3.45,8.59,1.53,5.23-3.29,10.3-8.3,6.75-15.62a3.7,3.7,0,0,1,.77-4.67,5.22,5.22,0,0,0,.73-6.58,3.08,3.08,0,0,1-.17-3.38c1.62-3.32,2-6.93-.77-9.56-2.3-2.18-1.93-4.69-2.68-7.16-1.17-3.83-.05-8.31-3.16-11.59a1.34,1.34,0,0,1-.19-1c.71-4.7-1.85-7.64-5.45-9.92a4,4,0,0,1-1.77-2.42c-1.11-3.41-2.71-4.59-6.32-4.76-1.15,0-2.17-.12-2.06-1.65.41-5.81,1.72-11.41,5.9-15.66a9.25,9.25,0,0,0,3-6.92,17.73,17.73,0,0,1,4.91-12.13c2.67-2.9,5.31-5.78,7.69-8.93,2.81-3.71,5.85-7.08,10.41-9a28.71,28.71,0,0,0,10.29-6.67c1.69-1.82,3.59-4,5.73-4.86a15.08,15.08,0,0,0,6.46-5.1c.88-1.15,1.21-1,2.05,0a10.64,10.64,0,0,0,8.88,3.79c3.86,0,6.94-2.48,7.88-6.8a12.36,12.36,0,0,0-.33-6.49c-.26-.84-1-1.94.49-2.71,2.83-1.44,3.88-3.92,3.6-7-.07-.73-.11-1.35.68-1.79,4.18-2.29,5.12-6.2,5.07-10.52,0-.89,0-1.3,1-1.69,5.63-2.15,8-6.55,7-12.47-.2-1.05-.17-1.49,1-1.82,2.54-.68,3.85-2.36,3.28-5.13a2,2,0,0,1,.85-2.21C573.93,252.22,574.09,250.63,572,247.26ZM390.83,162.09c.65-.24,1.4-.13,2.07-.32,2-.54,2.54-1.94,1.58-3.73-1.72-3.19-.92-4.74,2.62-5.08,2.43-.24,3.31-1.5,2.77-4-.83-3.82-.17-4.65,3.49-3.75a2.63,2.63,0,0,0,3.49-1.86c1.4-3.8,2.94-4.45,7.24-3.1,2.49.78,4.54,1.12,7-.93,2.81-2.37,5.23-1.31,6.75,2.13,1,2.28,2.35,2.78,4.63,1.75,5.27-2.38,7.61-1.14,8.45,4.5.45,3.09,2.07,4,4.75,2.46a5.74,5.74,0,0,1,7.24.69c2.07,1.76,3.53,1.36,4.82-1,2.52-4.72,5.15-5.71,10.11-3.65a4.92,4.92,0,0,0,5.54-.61c4.79-3.62,9.33-1.42,12.94,3.43a15.28,15.28,0,0,1,1.12,2.38,2.19,2.19,0,0,0,3.24,1.2,12.21,12.21,0,0,1,2.18-.93c4-1,7.32.08,7.18,4.8-.1,3.24,1.58,4.16,4.34,2.6,1.65-.93,2.14-.34,2.53,1.2a13.71,13.71,0,0,1,.35,6c-.41,2.13.46,3.2,2.46,3.5a2.06,2.06,0,0,1,2.11,1.71c-5.63-1.51-9.49,1.26-13,4.95a3.77,3.77,0,0,1-1,.67c-1.42-1.84-4.2-1.19-5.58-3.13-.78-1.09-1.94-2.15-3.32-1.73-2.18.67-3.19-.26-4.53-1.84a11.56,11.56,0,0,0-16.47-1.21c-.6.51-1,1.2-2,.7-4.63-2.41-7.87.11-10.9,3.15-.88.89-1.58,1.72-3,1.77-3.95.12-5.95,2.13-6.33,6.13-.08.86,0,1.74,0,3.46-5.25-4.27-10.11-7.87-14-12.47a4.35,4.35,0,0,0-3.65-1.95c-10.61,0-21.21,0-31.82,0a7.44,7.44,0,0,1-7-4.89C388.59,163.44,389.45,162.58,390.83,162.09Zm66.36,222.27c-2.1-1-4.45-2.13-7-1.5-1.37.34-1.42-.47-1.26-1.5.39-2.38,3.26-3.38,5.64-1.91.8.49,1.47,1.45,2.55,1,2.65-1.15,3,.1,2.52,2.29C460.19,385.41,459.53,385.5,457.19,384.36Zm-.74-8a12.9,12.9,0,0,0-3.85-.65c-3.15,0-3.36-.07-2.27-3.11,2.26-6.26,2.5-12.86,3.64-19.31,1-5.6,2.32-11.15,3.64-16.69a71.79,71.79,0,0,0,1.15-7.15c.62,1.59,1.14,3,1.69,4.33,1.41,3.45,3.06,6.54,6.65,8.46,3.13,1.68,2.09,5.22,1.89,7.88-.25,3.43-2.61,6.23-4.53,9a22.48,22.48,0,0,0-4.14,12.53c0,.87-.2,1.73-.29,2.6C459.78,376.62,458.28,376.94,456.45,376.4ZM455.66,323c-.23,8.88-3.23,17.16-5.38,25.64a107.42,107.42,0,0,0-2.46,13.95c-.62,5.26-2.95,10.11-3.33,15.41a4.55,4.55,0,0,1-.42,2c-.85,1.34,1.69,3-.39,4a28.44,28.44,0,0,1-4.45,1.33c1.25-5.34,2.49-10.52,3.68-15.71q5.32-23.3,10.62-46.62c.13-.6.34-1.18.44-1.79.33-1.95,1.27-2.56,3.28-1.25A3,3,0,0,0,455.66,323Zm-5.85-3.32c-2.88,13.1-5.7,26.22-8.55,39.32-2,9.17-4.2,18.29-5.76,27.54a2,2,0,0,1-2.12,1.87q-6.18.24-12.35.62c-1,.06-1.37-.05-1.18-1.26,1.59-9.86,3.09-19.72,4.61-29.58q2.6-16.75,5.17-33.51,2.14-13.75,4.3-27.51,2.58-16.47,5.15-32.95c.4-2.59.75-5.2,1.19-7.79.19-1.13.39-2.15,2.15-1.84,7.18,1.3,14.34.85,22.05-.73-1.42,6.44-2.74,12.51-4.09,18.57q-2.64,11.94-5.31,23.87C453.32,304.14,451.52,311.92,449.81,319.72Zm5.77,113.85c-.05,1.44.22,3.36-1.92,3.44-5.86.24-11.74.6-17.58.3-4-.21-7.9,0-11.84-.19-6.1-.34-12.2.14-18.3.14-5.85,0-11.72-.07-17.58,0-8.82.17-17.65-.16-26.47-.16-6.39,0-12.79.4-19.17.2-7.26-.23-14.51.3-21.77,0-6.18-.28-12.39.11-18.58.1-4.2,0-8.4-.4-12.58-.25-6.49.24-13-.4-19.44,0-10.37.6-20.73.12-31.1.37-7.54.18-15.1.21-22.62.2-6.74,0-13.49.06-20.24-.05-.52,0-1,0-1.58,0-3.4.26-4.68-1.47-3.59-4.74.37-1.09,1.17-.89,1.92-.89,4,0,7.91,0,11.86,0v.37c8.94,0,17.87.13,26.8,0,6.47-.12,13-.17,19.4,0,18.27.34,36.54.1,54.8.19,19.6.09,39.19,0,58.79,0H450.7c.88,0,1.76,0,2.64,0S455.63,431.66,455.58,433.57Zm2.71,8.49a1.86,1.86,0,0,1,.53,0c1.29.34,2.88-1.21,3.72-.07,1,1.36-.2,3.16-.16,4.81s-1.4,1.25-2.41,1.25l-20.28,0H351.34q-52.48,0-105,0-26.48,0-53,.1c-2.37,0-4.74.23-7.1.43s-3.09-.73-3-3.06c0-2.18.4-2.67,2.94-3.16,7-1.35,14-.69,20.94-.74,12.09-.08,24.18.27,36.27.3q45.72.1,91.45.09,50,0,99.94.06Zm-25.1-14.32c-7-.11-14,.16-21,0-9-.25-18.05-.12-27.07-.09-11.56,0-23.12.18-34.68.19-10.41,0-20.82-.15-31.22-.13-8.5,0-17,.27-25.48.28-25.74.05-51.47,0-77.2.09-5.67,0-11.37-.41-17,.43-1.87.28-2.07-.48-1.37-2.1,1.23-2.84,3.08-5.31,4.56-8a24.72,24.72,0,0,0,2.3-4.71c1.77-5.92,6.38-10.34,8.46-16,1.29-3.53,3.16-4.73,6.71-4.16A51.63,51.63,0,0,0,227,394c1.45,0,1.94.89,2.25,2.11,1.07,4.16,2.07,8.34,3.29,12.46s5.38,6.91,9.67,7.24c8.56.64,12.09-3.88,14.07-10.89.65-2.3-.32-4.67-.7-7-.53-3.18-.45-3.11,2.69-3.35,2.94-.24,4.71.52,5.62,3.6,1.11,3.76,2.92,7.31,3.93,11.13a1.87,1.87,0,0,0,1.79,1.63c1.17.08,2.25,0,3.05-1.06,4-5.48,9.31-9.78,13.73-14.88a3,3,0,0,1,2.62-.91c21.44,1,42.89.34,64.33.54a3.31,3.31,0,0,1,2.25.57c5.65,4.74,11.67,9,17.66,13.29a4,4,0,0,1,1.68,2c.47,1.49,1.37,2.67,3.08,2a3.59,3.59,0,0,0,2.45-3.66c-.14-5.14,1.3-10,2.63-14.92.21-.77.59-1.33,1.46-1.14,3,.64,6,.24,8.94.31,1.43,0,1.76.49,1.55,1.91-.53,3.73-.86,7.48-1.31,11.22-1.31,10.83,5,14.2,12.86,14.27,3.7,0,7.83-4,8.73-8.33,1.16-5.57,2.18-11.17,3.17-16.77.39-2.23,1.21-3,3.7-2.59a52.3,52.3,0,0,0,9.21.28c1.74,0,2.92.32,3.75,2.09a31.67,31.67,0,0,1,2.37,5.26c2.46,9.51,7.8,17.59,12.6,25.94.18.3.32.62.76,1.48C444.73,427.76,439,427.82,433.19,427.74ZM192.78,330.33a120.46,120.46,0,0,1,1.8-15.36,2.22,2.22,0,0,1,1-2c.57,2.34,1.19,4.59,1.66,6.87,1.85,8.93,4.41,17.71,6.26,26.62,1.71,8.24,3.77,16.38,5.6,24.58.18.82,1.27,2.25-.68,2.79-2.13.6-4.69-.05-5.15-1.52-1.45-4.59-2.85-9.2-4.26-13.8a27,27,0,0,0-3-7.28,16.2,16.2,0,0,1-2.86-10.4C193.41,337.36,192.69,333.83,192.78,330.33Zm14.4,47.39c3,0,6,3.87,5.09,6.72-.4,1.25-1.91,1.38-2.88,2.06-3.63,2.53-4.68,2-5.1-2.44-.08-.86-.29-1.72-.4-2.58C203.45,378,203.73,377.7,207.18,377.72Zm1.67-26.43q-7.12-32-14.35-64.06c-1.76-7.85-3.46-15.72-5.21-23.57-.15-.69-.51-1.44,0-2s1.28,0,1.9.24a62.67,62.67,0,0,0,10.11,2.81c1.51.23,2,.85,2.25,2.3,2.85,14.53,6,29,8.67,43.58,3.65,19.75,7.75,39.4,11.66,59.09q1.86,9.4,3.86,18.77c.28,1.26-.08,1.57-1.23,1.57-1.93,0-3.87-.18-5.18.28-2.93.28-4.38-.23-4.8-3.13C214.73,375.05,211.51,363.23,208.85,351.29ZM182.72,244.07a3.22,3.22,0,0,1-1.7-1.17c-.37-.6-.86-1.31-.56-1.94s1.1-.16,1.68-.15h3.72c3.18-.62,6.69.64,10.18,0,.94-.18,1.24.51,1.41,1.21,1.41,6,2.3,6.1-4.14,5.1A49.53,49.53,0,0,1,182.72,244.07Zm44.39-2.5c.11-.95,1.51-.47,2.31-.48,5.34,0,10.68,0,16.22,0l-15.54,4.16c-.7.19-1.61,1-2.08,0A7.1,7.1,0,0,1,227.11,241.57Zm134.5,96.37c-.41-3.28-.09-3.48,3.11-3.46,2.55,0,5.1,0,7.65,0v0c5.61,0,11.22.08,16.82,0,2.09-.05,2.35.76,2,2.48-2.65,11.53-5.23,23.07-8.23,34.52-2,7.63-2.88,15.52-4.82,23.18-.64,2.54-1.6,5-1.69,7.7-.05,1.54-.77,1.74-2,.88-5.45-3.67-10.95-7.28-16.4-10.95-2.12-1.42-1.45-3.72-1.17-5.51,2.05-12.8,3.52-25.68,5.16-38.53A40.44,40.44,0,0,0,361.61,337.94Zm23.58,45.74c1.48-9.1,4-17.95,6-26.91,1.51-6.65,3.06-13.35,3-20.25,0-1.23.39-2.24,1.77-2a21,21,0,0,0,5.76-.06c1.82-.15,2.24.69,2,2.41q-2.72,17.28-5.3,34.57c-.7,4.67-1.38,9.35-1.93,14.05-.26,2.23-1.09,3.54-3.53,3.39-1.14-.07-2.28,0-3.42,0C384.26,389,384.33,389,385.19,383.68Zm12.86-53.82H360.59v0q-20.31,0-40.62,0-32.27,0-64.53.15c-3.42,0-6.84.17-10.25.39-1.78.11-2.57-.61-2.84-2.3-.5-3.11-1-6.24-1.73-9.3a3.11,3.11,0,0,1,1.09-3.23,55.21,55.21,0,0,0,4.34-4.59c2.9-3.76,6.57-5,11.26-4.58,6,.5,12,.55,18.06.56q40.1.09,80.18,0c11.41,0,22.82,0,34.23,0a5.83,5.83,0,0,1,4.05,1.47c3.49,3,6.9,6,10.11,9.24a5.58,5.58,0,0,1,1.82,5.56C404.54,329.83,404.7,329.86,398.05,329.86Zm-138,37.7a246.63,246.63,0,0,0-8.24-29.64c-1.2-3.39-1.08-3.51,2.45-3.48,3.34,0,6.68,0,10,0h0c3.78,0,7.56,0,11.34,0,1.18,0,1.39.25,1.6,1.54.73,4.31,1.87,8.54,2.84,12.8a251.18,251.18,0,0,1,4.66,30.88,56.48,56.48,0,0,0,1.5,7.45,2.91,2.91,0,0,1-1,3.24,172.43,172.43,0,0,0-12.71,12.22c-1.14,1.27-1.56.71-2.12-.56C265.59,390.94,262.67,379.32,260.07,367.56Zm-2.55,22.78c-2.36.81-3,0-3.35-2-3.32-17.35-6.81-34.67-10.18-52-.16-.8-1-2.48.89-2.32,1.29.11,3.17-.82,3.63,2,1.1,6.9,2.63,13.75,4.18,20.58,2.43,10.76,4.81,21.53,7.57,32.21C261.08,392,258.05,389.69,257.52,390.34ZM442.6,242c8.27-1.19,16.54-.37,24.82-.11C459.14,243.37,450.87,244.37,442.6,242Zm-46.37-.62c-8.57,2.73-17.18,2.51-25.82.73,0-.25,0-.49,0-.73ZM349,246.87c2.6-3,2.47-2.77,5.64-.61,11.36,7.75,23.71,11.62,37.56,8.79,9.51-1.94,18.32-5.39,25.25-12.64l.66.34c-3.57,23.59-7.15,47.18-10.82,71.41-3.47-3.25-6.25-6.27-9.61-8.64a16.79,16.79,0,0,0-11-3.21c-6.46.3-12.95-.14-19.44-.14-8.15,0-16.31.4-24.46.16-11.5-.34-23-.07-34.48,0-18.88.18-37.77-.56-56.65.51-3.42.19-5.59,2.25-8,4.14a21.38,21.38,0,0,0-3,3c-1.22,1.47-1.68.73-1.93-.58-1.79-9.1-3.54-18.22-5.34-27.32-1-4.81-2-9.6-3-14.39-.5-2.31-.34-3.74,2.61-4.37,11.69-2.49,22-8.12,31.43-15.25,4-3,3.84-3.13,8.08-.21,7.5,5.18,15.44,9,24.72,10.33,5.64.79,11.2,2,16.92,1.85a54.34,54.34,0,0,0,33.36-11.7A11,11,0,0,0,349,246.87Zm-14.44-5c-16.92,5.06-33.8,6.3-50.58-.5C300.79,241.32,317.66,241,334.51,241.87ZM185,158.57c1.9.3,2.87,0,2.58-2.23a3.47,3.47,0,0,1,2.21-4.05c1.57-.61,3.14-1.76,4.69.25.8,1,1.84.69,2.71-.22,2.14-2.25,4.57-3.13,7.59-1.74a3,3,0,0,0,3.37-.72c2.51-2.11,4.44-2,6.51.49,1.2,1.42,2.16,1.07,3.3,0,2.67-2.45,5.22-1.69,6,1.85a3.54,3.54,0,0,0,1.06,2.31c1.28,1,2.57.56,2.53-1,0-1.73.42-3.13,2.08-3.49,1.92-.41,4.06-.89,5.76.67.83.76,1.57,1.49,2.74,1,1.39-.57,1.13-1.83,1-3a15,15,0,0,1,1.09-7.21,3.91,3.91,0,0,1,3.24-2.74c1.45-.13,2.15,1.08,2.74,2.14.86,1.53,1.55,3.15,2.35,4.71.58,1.13,1.31,1.79,2.72,1,3.62-2,5.7-1.48,7.92,1.9.29.44.51.93.8,1.37,1.45,2.17,2.5,2.3,4.43.55.39-.35.73-.76,1.13-1.1.67-.57,1.41-1.35,2.27-1.11s.44,1.37.6,2.09c.2,1,.3,2,1.35,2.4a2.42,2.42,0,0,0,2.8-.92c.24-.25.5-.49.75-.73,1-1,1.94-2.46,3.53-1.65,1.75.89.73,2.42.33,3.71a1.62,1.62,0,0,0,.6,2.09,2.39,2.39,0,0,0,2.94-.32c1.3-1.2,2.81-2.95,4.46-1.61s.67,3.46.11,5.21c-.36,1.14-.66,2.21.24,3.2s2.06.69,3.11.1a2.34,2.34,0,0,1,2.89.42,2.25,2.25,0,0,1,.84,2.54c-.88,3.94-.84,3.95,3.31,4,.49,0,1.1-.17,1.36.67-.83.86-1.93.48-2.89.48-17.49.08-35,0-52.46.21a209.9,209.9,0,0,0-21.27.78,5.76,5.76,0,0,0-3.51,1.6c-3.33,3.28-7.56,5.35-11.14,8.67-.48-1.54-.65-3.07-1.4-4.22a6.66,6.66,0,0,0-4.79-3.29c-2-.29-1.18-3.43-3.52-4.24-4.84-1.67-9.33-1.44-13.55,1.4-1,.71-1.7.9-2.75.22a3.22,3.22,0,0,0-2-.53c-2.52.31-3.1-.89-3.1-3.17C174.72,161.27,178.85,157.58,185,158.57ZM135.07,297.7c-1.89.86-4,1.09-5.72-.27s-3-1.12-4.35.63c-1.84,2.47-3.58,2.31-4.91-.39-.65-1.3-1.32-2.34-3-1.8-1.29.42-2.93,1.62-3.73-.05a5.4,5.4,0,0,1,.4-5.75c.32-.42.77-.73,1.11-1.13.68-.78,1.1-1.68.31-2.59a2.19,2.19,0,0,0-2.65-.55c-1.16.46-2.45,2.37-3.47.32-.82-1.63,0-3.42,1.35-4.75a4.4,4.4,0,0,1,.65-.45c.8-.57,1.67-1.13,1.18-2.33a1.92,1.92,0,0,0-2.2-1.08c-3.15.33-4.77-1.81-6.39-3.89a2.55,2.55,0,0,1-.35-3,2.21,2.21,0,0,1,2.77-.91,1.8,1.8,0,0,0,2.38-1.07c.45-1-.21-1.67-1-2.18a10.36,10.36,0,0,0-2.23-1.33c-2.86-1.06-3.42-3.38-3.25-6s1.75-3.85,4.1-4.53a15.06,15.06,0,0,1,5.15-.91c1.69.1,2.82-.48,2.49-2.4-.24-1.37.63-1.67,1.58-2,2.42-.76,2.92-2.32,1.78-4.45a11.09,11.09,0,0,1-1.08-4.29c-.46-4.2,1.13-6.85,5.06-8,1.47-.42,2.79-1,2.88-2.6s-1.5-2-2.72-2.38a20.46,20.46,0,0,1-5-2.39,3.46,3.46,0,0,1-1.65-3.84,3.72,3.72,0,0,1,3-3c.33-.1.71-.06,1-.14,2.39-.61,2.77-1.83,1.11-3.66-.85-.93-1.71-1.85-1.35-3.23s1.64-.89,2.61-1.09c1.62-.33,2.24-1.14,1.28-2.82-1.3-2.25-2.37-4.7-.53-7.11,2-2.64,4.65-3.86,8.09-3,2.39.64,3.35-.48,3.11-3.28-.06-.65-.62-1.45.19-1.92s1.3.25,1.86.65c1.73,1.22,2.73.55,3.34-1.25,1.42-4.2,4.82-5.54,8.87-3.49a15.55,15.55,0,0,1,1.32.85c1.31.87,2.86,2.09,4.1.39,1.07-1.49-.49-2.52-1.59-3.35-1.33-1-2.45-2.23-2.21-3.91s1.75-2.75,3.41-3.34c3.38-1.21,3.4-1.26,1.49-4.51-1.66-2.83-1.49-4.41.74-5.91,1.08-.73,2.26-1.47,3.65-.69a4.18,4.18,0,0,1,2.57,3.65c.12,3.29.2,3.26,3.18,1.86,1.77-.83,3.37-.88,4.35,1.3.62,1.39,1.69,1.8,2.94.69s2.71-1.17,4.18-1.33c1.92-.2,3.46.2,4,2.41.25,1,.7,2.14,2.13,1.84a2.75,2.75,0,0,0,2.25-2.26c.83-3.38,8-5.4,10.37-3,.63.64.43,1.48.53,2.24.25,1.81.87,2.93,3.11,2.4,2.56-.59,3.56.34,3.67,3a8.25,8.25,0,0,1-2.43,6.57c-5.68,5.92-12.33,10.67-18.4,16.11-3.46,3.1-6.89,6.26-10.06,9.65-2.93,3.13-6.8,5.29-9.14,9a1.54,1.54,0,0,1-.79.68c-2.41.68-3.1,1.65-2.26,4.46s.24,5.93.24,8.91c0,2.16-.12,4.23,2.82,4.8.79.16,1.31,1.51,2,2.27a91.53,91.53,0,0,0,17.7,14.43,5.54,5.54,0,0,1,3,4.52c.59,4.68,1.93,9.26,3,13.88,1.7,7.34,3.45,14.68,5.13,22,.3,1.29.54,2.57-1.58,2.72-1.11.08-1.38,1.46-1.89,2.37-1.55,2.76-2.84,3.27-5.91,2.39-2.28-.65-3.44.28-3,2.67.23,1.37.41,2.12-1.44,1.94-1.52-.15-1.71,1.18-1.85,2.36-.2,1.61-.74,2.86-2.72,2.9-2.6.06-2.8-.18-2.75-3.94,0-.62,0-1.23,0-1.85,0-2.13-1-3.1-3.19-2.5a9.3,9.3,0,0,1-1.81.33,4.65,4.65,0,0,1-5.07-6.1c.24-.93.68-1.82.88-2.75.36-1.76-.12-3-2.22-2.88a7.26,7.26,0,0,1-6.53-2.64,2.05,2.05,0,0,0-2.07-.9c-3.74.94-7.06-.66-10.47-1.66-3.17-.92-3.5-.6-3.29,2.53C137.44,294.75,137.13,296.76,135.07,297.7Zm45,25.69c-2.72-1.26-5.85-1-7.85-4,2.49-.32,4.76-.43,6.41-2.24.47-.51,1-.1,1,.55C179.79,319.53,179.9,321.32,180,323.39Zm-22.66-22.32c-.23.8-.88.74-1.49.39a58.85,58.85,0,0,1-8.86-5.77c4.36-.58,6.6,3,10.07,3.54C157.93,299.36,157.56,300.45,157.38,301.07Zm29.53,53.29c-1.25-5.73-2.56-11.49-6.48-16.2a29.17,29.17,0,0,0-11.38-7.87c-5.37-2.25-8.51-6.24-11-11.07a38.61,38.61,0,0,0-14.45-15.3,23.17,23.17,0,0,0-4.32-1.89c-1.75-.63-2.45-1.4-.78-2.92.45-.4,1-.9,1.12-1.43.52-3.57,2-1.74,3.15-.53,4.53,4.63,10.5,7.27,15.52,11.22,2,1.55,3.74,3.1,4.65,5.52,1.34,3.6,3.86,6.48,6.24,9.39a8.46,8.46,0,0,0,5.1,3.09,11.63,11.63,0,0,1,4.51,2c2.69,1.74,4.22.95,4.4-2.3.18-3.06-.3-6.15.46-9-.09-.61-.15-1-.2-1.48-.38-3.23.4-4.36,3.38-5.49a10.49,10.49,0,0,0,5.47-4.72c.26-.44.62-1,1.23-.48.4.32.34.76,0,1.15-2.86,3.1-2.74,7.26-3.72,11a44.91,44.91,0,0,0-1.31,9.87c-.13,4.1.23,8.21.41,12.32a15.19,15.19,0,0,1,.2,3.13c-.59,3.25.42,6.1,2,8.77,4.37,7.22,6.43,15.35,8.84,23.29,1.07,3.5,1.15,7.4,1.87,11.09.11.61.21,1.19-.62,1.49a6,6,0,0,0-3.1,2.71c-.81,1.38-2,.62-3.08.46s-1.33-1-1.27-2c.44-7.3-2-14-4.47-20.65C187.74,363.29,187.85,358.71,186.91,354.36Zm-3.48,33.32a8.07,8.07,0,0,1,3.62-5.54c1-.59,1.59-.21,1.68,1,.12,1.57.36,3.12.46,3.9v2.88a1.57,1.57,0,0,1-1,1.68c-.78.29-1.08-.29-1.47-.76s-.66-.57-.94-.9C185.09,389.11,183.05,389.42,183.43,387.68Zm-5.1,61.43c-1.72-.1-3,.39-2.89,2.45,0,.64-.13,1.35-1,1.27s-.67-.88-.74-1.47c-.41-4-.52-4-4.09-2.26-1.41.7-2.93,1.17-4.38,1.78-.73.3-1.4.35-1.83-.41s.15-1.15.61-1.56.83-.65,1.26-1a2.19,2.19,0,0,0,1-2.51,1.85,1.85,0,0,0-2.06-1.33c-2.74.28-3.23-1.7-3.61-3.59-.42-2,1.24-2.39,2.7-2.85,1.13-.35,2.22-.9,2-2.36s-1.3-1.59-2.56-1.66c-3.47-.19-3.77-.53-3.8-3.86,0-1.32-.8-2-1.67-2.81-2.92-2.66-3.35-5.13-1.47-8.64.81-1.51.24-2.51-.88-3.41-.61-.49-1.38-.78-1.8-1.5a2.69,2.69,0,0,1-.33-2.52A1.79,1.79,0,0,1,155,410c2.44.56,3.48-.57,4.57-2.73,2.77-5.47,7.69-8.07,13.65-8.4,2.7-.14,4.47-.6,4.25-4.06l1.24,1.1c2,1.73,2.91,1.52,3.85-.85.23-.6,0-1.64,1-1.58.64,0,.7.88.92,1.45.95,2.52,1.78,2.85,4,1.24a10.67,10.67,0,0,1,5.84-2.12,4.8,4.8,0,0,1,4.25,1.62c.67.8,1.5,1.29,2.53.68a2.09,2.09,0,0,0,.91-2.52,13.62,13.62,0,0,1-.33-1.54,1.05,1.05,0,0,1,.69-1.27,1.16,1.16,0,0,1,1.34.6c.24.36.4.77.61,1.16,1.23,2.29,2.48,2.41,4.13.34,1.28-1.62,2.3-3.51,5-4.26A56.35,56.35,0,0,1,206.31,401a25.79,25.79,0,0,0-4.82,8.41c-2,6.29-6.52,11.24-8.8,17.35a2.07,2.07,0,0,1-2.17,1.2c-2.22,0-2.83,1.42-2.89,3.27a41.82,41.82,0,0,0,0,4.48c.13,1.75-.68,2.29-2.31,2.37-5.84.3-6.06.61-5.32,6.51.1.78.05,1.58.14,2.36C180.34,448.41,179.89,449.19,178.33,449.11ZM468,459c-.42,1.08-1.72.62-2.63.62q-23.34,0-46.68,0H331.14q-65.53,0-131.07,0c-6.47,0-12.94.55-19.41.85-.18,0-.4.11-.52,0-2.26-1.48-.94-3.77-1.22-5.69-.17-1.13,0-2.14,1.77-2.14,24.68,0,49.37-.08,74.06-.12q26.08,0,52.19,0h44q56.94,0,113.87,0c1.08,0,2.81-.58,3.08.66C468.29,455.15,468.71,457.18,468,459Zm23.73-39.92c2.73,1.14,2.95,5.51.39,8.17a4.74,4.74,0,0,1-.82.66c-.91.66-1.65,1.41-1.16,2.64a2.17,2.17,0,0,0,2.51,1.45c1.79-.22,2.25.8,1.27,2-2,2.42-1.12,5.25-.89,7.67.48,4.93-1.34,8.28-5.19,11-1.19.83-2.16.42-3.16-.16-2-1.15-3.88-2.39-5.85-3.55-2.66-1.57-4.31-.69-4.62,2.45-.06.69,0,1.41-.14,2.09s-.75.91-1.37,1c-.85.17-1.19-.43-1.23-1-.16-2.68-1.86-4.07-4-5.4s-.81-3.69-1.41-5c.42-2.58.22-3.93-2.54-4.09s-4.27-2.36-4.37-5.25c-.07-1.9-.05-3.68-2.31-4.48a3,3,0,0,1-1.4-1.84c-2.47-6.31-6.2-11.95-9.61-17.75-2.11-3.6-3.11-7.62-5.08-11.24-.55-1-1-2.05-1.56-3-1.49-2.65-.21-5.41,2.75-6.16,2.51-.63,5.08-.83,7.58-1.77,3.42-1.28,7.07,1.32,7.55,4.89.16,1.28.66,2.25,2.07,2.26,1.58,0,2.06.82,2.28,2.26.52,3.37,1.57,3.92,4.71,2.48,1.05-.48,1.5,0,1.94.68,1.37,2,2.7,1.49,4.09.06,2.52-2.59,5.73-2,7.32,1.29a13.94,13.94,0,0,1,1.46,5c.19,2.31,1.51,3,3.68,2.12,1.14-.46,2.31-1.86,3.54-.5a5.19,5.19,0,0,1,.9,5.21C487.81,417.44,487.79,417.43,491.73,419.09Zm-16.26-35.51c1.31-.13,2.69-.34,3.74.71a3.31,3.31,0,0,1,1,3.59c-.65,1.89.12,2.77,2,3,4,.53,5.46,2.93,4.24,6.73a2.55,2.55,0,0,0,1,3c.59.48,1.42.71,1.53,1.8-2.2.59-3.88.45-4.73-2.06-1.48-4.42-4.67-6.6-9.31-6.67-1,0-1.4-.45-1.22-1.47a32.53,32.53,0,0,0,.73-7.3A1.14,1.14,0,0,1,475.47,383.58Zm27.41-60.32c-4.37,1.92-7.27,5.51-9.95,9.18-2.39,3.27-5.29,6.05-7.86,9.12a23.08,23.08,0,0,0-5.59,15,5.28,5.28,0,0,1-1.34,3.53,29.3,29.3,0,0,0-6.71,18.43c-.08,4.65.41,9.3-.34,13.95-.29,1.81-.65,1.83-2.59,1.75-3.68-.13-3.84-4-6.43-5-.19-.07-.2-.81-.15-1.22.65-5.66,1.28-11.31,2-17a22.57,22.57,0,0,1,3.57-8.95c2.09-3.39,5.07-6.39,5.6-10.56a27,27,0,0,0-.32-9.1c-.45-2.07-2-3.29-3.76-4.17a7.34,7.34,0,0,1-3.83-4.17c-1.31-3.89-3.38-7.56-3.53-11.81a4.83,4.83,0,0,0-.52-1.75c-.35-.72-.86-1.35.06-2.06a2.68,2.68,0,0,1,2.65-.75c1,.36.76,1.32.73,2.08-.11,2.5.63,4.49,3.06,5.59a2,2,0,0,1,1.18,1.61,14.92,14.92,0,0,0,3.45,6.42c1.6,1.84,3.61,3.3,4.72,5.57a1.5,1.5,0,0,0,2,.81c.92-.38,1.57-1.22,1.16-2.09-1.56-3.27.84-5.07,2.54-7.05,2.32-2.71,5.59-3.87,8.85-4.92a22.34,22.34,0,0,0,7.18-3.81c3.63-2.93,7.71-5.18,11.53-7.82.57-.4,1.34-.73,1.65-1.29,1.24-2.24,2.76-1.83,4.49-.71a4.86,4.86,0,0,0,1.4.37C513.87,317.78,508.55,320.77,502.88,323.26Zm-30.16,1.64a13.83,13.83,0,0,0,5.83-5.9c.53-1.06,1.24-1,2.15-.94a3.23,3.23,0,0,0,3.56-2.14,3.62,3.62,0,0,1,3-2.53,5,5,0,0,0,4.05-4c.36-1.53,1.09-2.52,2.86-2.42s2.19-1.74,3.28-2.68c2.6,5.11,4.39,5.68,12.57,4.08-.18,1.38-1.39,1.87-2.21,2.36-6.79,4.1-12.59,9.72-20.23,12.59a17.66,17.66,0,0,0-9.07,8.08c-.95,1.72-1.74,1.47-3,.4-1.57-1.35-2.4-3.21-3.59-4.82C471.23,326,471.83,325.4,472.72,324.9Zm93.61-73.26c-3,1-3.22,2-1.1,4.51.35.4.76.85.46,1.4-.41.78-1.08.46-1.58.14-1.12-.71-2.33-1.2-3.36-.14-1.27,1.31-.25,2.58.44,3.81,2.55,4.51,1.65,8.38-2.42,10.55-1.1.59-2.1,1.07-3.41.2a2.2,2.2,0,0,0-2.9.38c-.83.92-.28,1.75.18,2.64a8.42,8.42,0,0,1,.65,6.62c-.57,1.83-1.35,3.05-3.46,3.39-2.86.46-3.42,1.68-2.49,4.52,1,3.09.85,3.59-2.19,4.2-2.57.5-2.86,1.81-2.17,4a30.29,30.29,0,0,1,1.28,5.36c.24,2,.23,4.12-1.81,5.43s-4,1-6.05.11a9.06,9.06,0,0,1-3.77-3.57c-1.74-2.62-3.21-2.52-4.82.22a21.91,21.91,0,0,1-1.23,2c-1.1,1.49-2.16,3.26-4.11.82a1.71,1.71,0,0,0-2-.3c-3.42,1.15-6-.34-8.16-2.78-1.27-1.45-2.43-1.62-4.12-.66-4.67,2.68-7.67.87-7.91-4.57-.07-1.53.74-3.78-1.59-4.18s-2.46,2.08-3.08,3.56c-.93,2.19-1.39,4.54-4.69,4.28-1.5-.12-1.74,1.59-2,2.72-.58,2.5-1.66,4.17-4.57,4.12-1.5,0-2.34,1.09-2.71,2.47-.27,1-.57,1.83-1.92,1.54-1.9-.41-3,.65-3.64,2.27a12.89,12.89,0,0,1-4,4.83,3,3,0,0,1-3.18.76c-1.29-.51-1.4-1.68-1.36-2.88.07-2-.37-3.77-2.25-4.69s-3.85-.45-5.51,1.12c-.92.87-2.08,1.86-3.52,1s-.69-2.34-.42-3.55q6.44-28.72,12.87-57.44a4.31,4.31,0,0,1,3.24-3.65c6.52-1.92,10.79-7,15.57-11.37a5.59,5.59,0,0,0,1.66-4.75c-.2-3.34-.36-5.78-.49-8.22,0-.7-.26-1.62.08-2.07,3-3.85-.42-6-2.4-8.17a53.49,53.49,0,0,0-8.78-7.52c-9-6.28-16.95-13.92-25.64-20.6a8.06,8.06,0,0,1-3.42-7.4c.16-3.31,1.39-4.25,4.61-3.4a2.2,2.2,0,0,0,2.72-.94,16.56,16.56,0,0,1,2.86-3.42c2.32-2,4.59-2.4,7.07-.4,1.35,1.09,2.42.64,3.35-.61,3.58-4.81,6.44-4,11-1.62,1.67.9,2.17,2.37,2.66,4,.89,3,2.41,3.56,4.72,1.57,1.56-1.35,1.76-.65,2,.83s1.18,2.54,2.78,1.81c1.93-.88,2.69.27,3.59,1.55,2,2.81,3.27,2.67,4.71-.49a10.28,10.28,0,0,1,5.81-5.44c2.93-1.16,5,0,5.71,3.08.12.51.14,1,.29,1.55.69,2.31,1.92,2.7,3.87,1.27,2.15-1.57,3.17-1.19,3.8,1.44.21.86.25,1.75.49,2.59.55,1.9,2.29,2.64,3.83,1.42,2-1.55,4.13-1.38,6.29-1.17,2.45.24,3.2,2.2,3.53,4.3.25,1.65.34,3.32.56,5a1.93,1.93,0,0,0,1.56,1.88,2.11,2.11,0,0,0,2.2-1.16c.52-.89.88-2.38,2-2.06s1.94,1.77,2.19,3.07.15,3,.41,4.42c.33,1.83,1.09,3,3.22,1.62a3.94,3.94,0,0,1,4.72.07c1.48,1.09,1.66,2.74,1.24,4.52a41,41,0,0,0-.67,4.42,2,2,0,0,0,1.16,2.16,2,2,0,0,0,2.17-.53c4.45-3.38,9-2.77,12.38,1.65,1.41,1.87.56,6-1.59,7.88-1.85,1.58-4,2.83-5.06,5.24-.64,1.41-.48,2.28.74,3.13s2.54,1.88,3.79,2.86c3.34,2.63,3.43,5.85.24,8.5a2,2,0,0,0-.11,3.37c.49.48,1.21.72,1.73,1.18C569.15,249,568.81,250.82,566.33,251.64Z" transform="translate(-98.53 -64.31)"/><path class="cls-1" d="M165.28,223c106.3-.6,212.3.2,318.46-.74a6,6,0,0,0-2.25-2.67c-4.67-4.27-9.93-7.8-14.85-11.74-6.57-5.27-12.85-10.88-19.32-16.26-5.61-4.66-11.07-9.5-16.2-14.65a7,7,0,0,0-5.65-2.38c-8.44.09-16.87,0-25.31,0H310c-13.68,0-27.37.19-41.05-.19-6.71-.19-13.4.32-20.12-.19s-13.5,0-20.24-.2c-4.55-.13-8.28.27-12.08,3.87-5.94,5.63-13.14,9.91-18.87,15.9-5.06,5.29-11.28,9.21-16.64,14.16S170.28,217.54,165.28,223Z" transform="translate(-98.53 -64.31)"/><path class="cls-1" d="M476.49,237v-.05c1.14,0,2.28,0,3.41,0,6.91.27,5.69.27,5.86-5.37a10.21,10.21,0,0,1,.17-1.83c.49-2.3-.33-3-2.72-2.95q-32.93.09-65.85-.07c-6.88,0-13.76-.3-20.66,0-9.63.38-19.26-.45-28.91-.12-10.66.37-21.35-.21-32-.22-37.1-.05-74.21,0-111.31-.05-19.07,0-38.15.29-57.22-.25-5.64-.16-5.65-.1-5.65,6,0,5.6,0,5.59,5.42,5.48h1.32c18.26,0,36.53.29,54.78-.15,18.09-.44,36.18-.38,54.26-.49,14-.09,27.94,0,41.91,0,14.32,0,28.64.17,43-.11,9.38-.19,18.77.12,28.15.12,8.92,0,17.86-.31,26.77-.21l24.14.22C453,237.05,464.76,237,476.49,237Z" transform="translate(-98.53 -64.31)"/><path class="cls-1" d="M405.48,416.92c2.09.71,3.55-.83,4.9-2.76s2.76-3.66,2.74-6.3a29.52,29.52,0,0,1,.4-4.43c1.92-13.44,3.74-26.89,5.74-40.32q4.71-31.64,9.61-63.23,3.47-22.5,7-45c.23-1.44-.17-2.22-1.48-2.58A33.46,33.46,0,0,1,424,247.48c-1.28-.89-2-.81-2.26.92-1.37,8.82-3,17.62-4.15,26.47-2.14,15.88-4.94,31.66-7.33,47.5-1.38,9.09-2.91,18.16-4.33,27.25-1.9,12.11-4,24.2-5.54,36.36-1,7.84-3.94,15.41-3,23.57C397.91,414.56,399.89,416.9,405.48,416.92Z" transform="translate(-98.53 -64.31)"/><path class="cls-1" d="M214.76,265.87a21.6,21.6,0,0,1-3.69,0c-2.87-.49-2.78,1.23-2.41,3.09,1.06,5.4,2.22,10.79,3.3,16.19q3.56,17.77,7.07,35.55c2.48,12.64,4.83,25.29,7.33,37.92,1.87,9.44,3.61,18.92,5.58,28.34,1.38,6.64,1.42,13.61,4.49,19.9a8.19,8.19,0,0,0,8.51,4.78c2.62-.35,6.44-3.87,6.38-6.61-.1-3.9,1.26-7.88-.48-11.74a19.32,19.32,0,0,1-1.28-4q-3-14.94-6-29.92Q237.8,330,232,300.71c-2.13-10.84-4.38-21.67-6.3-32.55-.45-2.53-1.52-3.22-3.63-2.75A36.22,36.22,0,0,1,214.76,265.87Z" transform="translate(-98.53 -64.31)"/><path class="cls-1" d="M357.91,339.61a11.91,11.91,0,0,1,.16-2.49c.8-2.47-.46-2.76-2.49-2.68-3.33.12-6.67.09-10,.1-8.24,0-16.49.07-24.73.07-12.3,0-24.59,0-36.88,0-1.55,0-4-.45-4.45.28-.8,1.34,1,3,1.29,4.58.16.83.14,2,1.09,2.21s1.28-1,1.75-1.68c1.29-1.9,2.86-2.91,5.09-1.52a2.55,2.55,0,0,0,2.5.28,3.81,3.81,0,0,1,4.75,1.17c1.24,1.41,2.26,2.08,4.09.9a2.5,2.5,0,0,1,3.14.64c.89,1.06,0,1.94-.71,2.74s-.57,1.88-.7,2.92c-.46,3.61,1.05,7.11-1.56,10.94-3.59,5.28-7.42,10.4-11,15.71a5.15,5.15,0,0,0-1.08,3.15c.09,2.86,1,5.55,1.43,9,2.15-3.7,4.16-6.68,5.67-9.91,1.2-2.56,3.05-3.28,5.58-3.43,6.05-.35,12.1-.57,18.16-.6,7.19,0,14.38-.26,21.57-.36a7.19,7.19,0,0,1,6.83,3.57c1.54,2.49,2.42,5.42,5.05,7.86.43-4.66,2.42-8.49-.82-13-3-4.24-5.51-8.91-9.18-12.75-1.08-1.12-2.43-2.38-1.58-4.4.32-.76-.44-1.07-1.11-1-3.66.27-7.34-.13-11,.16-6.11.5-12.28.08-18.35,1.22a2,2,0,0,1-2.39-1.63,113.14,113.14,0,0,1-1.64-12.4c-.15-2.8,3.19-5.43,5-4.22,2.23,1.47,4.17,1.21,6.37.35.62-.24,1.7-.46,2-.14,2.21,2.22,4.8.81,7.21.93a4.73,4.73,0,0,0,.53,0c3.24-.18,6.52-.12,9.71-.62,3.81-.6,6.63.8,7.73,4.42.22.73,0,1.84.9,2s1.24-.84,1.69-1.44C350,337.5,355,336.5,357.91,339.61Z" transform="translate(-98.53 -64.31)"/><path class="cls-1" d="M351.92,389.88c-3.79-3.63-5.81-7.61-7.89-11.52a3.67,3.67,0,0,0-3.57-2.13c-7.54-.06-15.07,0-22.61-.12-5.25-.08-10.52.48-15.75-.46a2,2,0,0,0-2.33.76c-2.71,4.57-5.44,9.13-8.28,13.9C311.48,389.66,331.27,390.24,351.92,389.88Z" transform="translate(-98.53 -64.31)"/><path class="cls-1" d="M167.45,241.9c27.86,28.27,72.74,23.06,96.84-.7-5.21-.37-5.2-.34-9.7,2.13-2.65,1.46-5.65,1.85-8.54,2.59-6.62,1.7-13.19,3.6-19.85,5.14-7.87,1.81-15.87,1.16-23.84.77a62.71,62.71,0,0,1-23.18-5.3C175.56,244.88,171.77,243.59,167.45,241.9Z" transform="translate(-98.53 -64.31)"/><path class="cls-1" d="M313.67,255.48c3,.34,5.94-.48,8.85-1.09,8.7-1.83,16.9-4.75,23.36-11.23.47-.46,1.66-.94.85-1.81-.55-.61-1.45-.24-2.14.29a29.82,29.82,0,0,1-6.7,4.14c-6.45,2.72-13.21,3.74-20.16,4.42-14.87,1.47-28.78-.94-41.68-8.61a6,6,0,0,0-3.31-.48,1.3,1.3,0,0,0-1.44.91c-.27.82.45,1.1.92,1.39,5,3.13,9.85,6.52,15.54,8.17A110.09,110.09,0,0,0,313.67,255.48Z" transform="translate(-98.53 -64.31)"/><path class="cls-1" d="M200.14,241c1.46,1.54,1.51,3.34,1.93,5a2.43,2.43,0,0,0,2.76,2.13c4.73,0,9.45.09,14.18,0a21.7,21.7,0,0,0,3.87-.64c1.21-.25,1.83-.89,1.48-2.25a26.88,26.88,0,0,1-.45-2.83c-.12-.73-.28-1.4-1.23-1.42-2.44-.05-4.88-.28-7.31-.13C210.48,241.19,205.59,241,200.14,241Z" transform="translate(-98.53 -64.31)"/><path class="cls-1" d="M479.2,241.67c-1.7-.12-3.1-.45-4.1.68-2.92,3.32-6.88,4.28-11,5.14-3.91.82-7.88.27-11.81.75a25.48,25.48,0,0,1-16.82-4.09c-4-2.55-8.21-3-13-2.58C439.62,254.75,470.63,252.12,479.2,241.67Z" transform="translate(-98.53 -64.31)"/><path class="cls-1" d="M410.31,241.88a1.38,1.38,0,0,0-1.65-.16c-3.39,2.34-7.4,3-11.2,4.28-9.52,3.15-19.11,2.85-28.68.28-3.57-1-6.77-2.88-10.13-4.39-1.26-.58-2.62-1.32-4.34,0,1.31.76,2.34,1.39,3.4,2,4,2.18,8.63,3,12.66,5.09,5.35,2.72,11,2,16.48,2.09,6.24.12,11.89-2.71,17.55-5A13.09,13.09,0,0,0,410.31,241.88Z" transform="translate(-98.53 -64.31)"/><path class="cls-1" d="M334.34,347.8c1.67,0,3.34.07,5,0,.88,0,2.25.69,2.31-1.19.06-1.65-.75-2.13-2.25-2.13q-8.13,0-16.25-.15c-3.69-.07-7.38-.25-11.06-.34-.65,0-1.65-.31-1.78.63a6.43,6.43,0,0,0,.86,4.31c.6.95,1.77.51,2.7.39A172.87,172.87,0,0,1,334.34,347.8Z" transform="translate(-98.53 -64.31)"/><path class="cls-1" d="M354.62,367.13c.36-2.78.64-4.75.87-6.73a2.68,2.68,0,0,0-.46-2.25c-2.92-3.11-5.54-6.52-9-9.07-1.21-.88-1.7-.4-1.84.91-.31,2.73-.1,5.21,2.52,6.9a14.32,14.32,0,0,1,2,2C351,361.13,352.36,364,354.62,367.13Z" transform="translate(-98.53 -64.31)"/><path class="cls-1" d="M298.68,350.17c-4,4.21-6.55,9.08-10.16,13.11-1.79,2-2.29,3.91-.77,6.49,3.06-3.89,5.91-7.73,9-11.35C298.84,356,299.31,353.43,298.68,350.17Z" transform="translate(-98.53 -64.31)"/><path class="cls-1" d="M285.37,358.17c1.26-1.61,2.37-2.85,3.27-4.22.65-1,1.95-2.1,1.45-3.19-.6-1.32-2.33-1.32-3.72-1.51-.25,0-.53,0-.78,0-1.94-.29-2.55.49-2,2.35C284.18,353.59,284.68,355.63,285.37,358.17Z" transform="translate(-98.53 -64.31)"/><path class="cls-1" d="M294.74,345.07c-3.75-.19-7.32,0-10.84-.5-.7-.11-1.47,0-1.44,1s.69,1.11,1.45,1.12c2.18,0,4.37-.14,6.5.54S293.67,347.05,294.74,345.07Z" transform="translate(-98.53 -64.31)"/><path class="cls-1" d="M286.41,362.93c4-6.11,7.85-11.41,11.68-16.75C294.09,349.33,286.23,360.14,286.41,362.93Z" transform="translate(-98.53 -64.31)"/><path d="M256.76,277.79a5.73,5.73,0,0,1-3.13,2.85c-1.25.43-.77,1.85-.66,2.81a23,23,0,0,1,.32,5.49c-.12.9-.22,2.11-1.54,2.05-1.12-.05-1.22-1.05-1.37-1.94a33.49,33.49,0,0,1-.57-5.21,32.45,32.45,0,0,0-1-9.35c-.35-1.18-.78-2.83.86-3.45,1.48-.56,2,1,2.76,1.88.22.27.41.56.68.94,1-.91.77-2.22,1.2-3.28.37-.91.71-1.8,1.93-1.85a2,2,0,0,1,2.1,1.62c1.54,6.15,4.22,11.84,6.79,17.58.54,1.21.9,2.83-.61,3.49s-2.33-.87-2.85-2C260,285.65,258.49,281.86,256.76,277.79Z" transform="translate(-98.53 -64.31)"/><path d="M312.71,278.29c-.15-5.55,2-8.48,6.76-9.83a4.21,4.21,0,0,1,5.21,1.88c1.25,2,.85,3.85-.53,5.6a8.7,8.7,0,0,1-5,3.16c-2.56.55-2.89,2.29-2.68,4.28a22,22,0,0,1-.24,5.5c-.12.87-.07,2-1.2,2s-1.09-1-1.32-1.9C312.74,285.48,313.65,281.8,312.71,278.29Z" transform="translate(-98.53 -64.31)"/><path d="M383.3,280.28c-.09-3.81,1.25-6.27,4.4-7.49a2.5,2.5,0,0,0,1.88-2.26c.09-2.07,1.16-3.84,1.62-5.79.28-1.23.93-1.91,2.2-1.62a1.92,1.92,0,0,1,1.5,2.6,72.72,72.72,0,0,0-1.88,9.49,12.75,12.75,0,0,0-.21,2.32,6.74,6.74,0,0,1-1.95,5c-1.46,1.69-3.44,2.72-5.58,2S383.25,281.66,383.3,280.28Z" transform="translate(-98.53 -64.31)"/><path d="M358.32,283.21c-2.65,0-4.28-1.93-3.71-4.5.29-1.27.15-2.61.84-3.82.6-1.05,1.21-1.93,2.54-2,1.87-.09,2.7-.92,2.8-3a28.28,28.28,0,0,1,1.61-8.23c.45-1.27,1.11-2.92,2.94-2.27s1.12,2.1.76,3.39a100,100,0,0,0-2.46,14.48C363.26,280.34,360.79,283.23,358.32,283.21Z" transform="translate(-98.53 -64.31)"/><path d="M379,281.19c-.13,1.62.17,3.43-1.8,3.49s-2.26-1.58-2.27-3.19c0-.91,0-1.89-1.24-1.93s-2.47-.83-3.33.64a4.16,4.16,0,0,1-.43.66c-.77.9-1.07,3-2.74,2-1.5-.92-.11-2.38.36-3.49a68.17,68.17,0,0,1,3-6.14c.76-1.39,1.78-2.78,3.55-2.79s2.31,1.55,3,2.9A19.93,19.93,0,0,1,379,281.19Z" transform="translate(-98.53 -64.31)"/><path d="M281.67,277.74a16.91,16.91,0,0,0,1-4.45c.15-.86.58-1.81,1.65-1.71a1.82,1.82,0,0,1,1.7,2,18.17,18.17,0,0,1-2.26,8.54c-.76,1.39-1.93,1.41-3,.21-.74-.84-1.39-1.77-2.42-3.11-.12,1.62-.17,2.77-.31,3.9-.11.86-.2,2-1.3,2-1.25,0-1.1-1.18-1.11-2,0-3.07,0-6.14.05-9.2,0-.86-.07-1.83,1.19-2a1.78,1.78,0,0,1,2,1.33A10.82,10.82,0,0,0,281.67,277.74Z" transform="translate(-98.53 -64.31)"/><path d="M335.08,281.5c0,1-.3,2-1.48,2.18s-1.64-.76-1.9-1.73c-.2-.72.06-1.76-1-1.91s-1.58.79-2,1.69-.87,2-2.09,1.47-.57-1.63-.34-2.54a79.8,79.8,0,0,1,2.58-8.8c.38-1,.91-1.71,2-1.82,1.27-.12,1.6.87,1.93,1.79A58.49,58.49,0,0,1,335.08,281.5Z" transform="translate(-98.53 -64.31)"/><path d="M294.11,276.69c0-3.35,1.67-5.44,4.77-5.83.87-.11,2.05-.5,2.44.82s-.33,1.91-1.57,2.19a2.6,2.6,0,0,0-2.22,2.55c-.19,2.54,1.27,3.84,3.71,3.1,1.37-.42,2.83-1.2,3.4.85s-1.22,2.36-2.41,2.84C297.91,284.94,294.11,281.83,294.11,276.69Z" transform="translate(-98.53 -64.31)"/><path d="M270.41,274.49a10.63,10.63,0,0,1-.18-1.31,1.45,1.45,0,0,1,1-1.65c.82-.25,1.26.31,1.65,1,1.81,3,.2,8.41-2.93,9.86a3.73,3.73,0,0,1-3.54,0,8.57,8.57,0,0,1-4.35-6.78c-.1-.82.09-1.67,1.05-1.86s1.19.6,1.45,1.24a16.5,16.5,0,0,0,1.06,2.67c.66,1,1.42,2.21,2.87,1.83s1.81-1.55,1.92-2.85C270.45,276,270.41,275.35,270.41,274.49Z" transform="translate(-98.53 -64.31)"/><path d="M340.53,273.31c-.11,1.91-.08,3.85-.37,5.74-.2,1.31-.89,2.74-2.54,2.42s-1.81-1.73-1.67-3.14c.32-3.21.62-6.42,1-9.62.13-1.07.11-2.52,1.67-2.55,1.79-.05,1.66,1.53,1.76,2.68.12,1.48,0,3,0,4.46Z" transform="translate(-98.53 -64.31)"/><path d="M349,273.6a38.55,38.55,0,0,1-2.63,7.48,1.33,1.33,0,0,1-1.74.77,1.38,1.38,0,0,1-.79-1.53,27.76,27.76,0,0,1,2.44-8.21,1.42,1.42,0,0,1,1.83-.65C349.09,271.78,348.81,272.71,349,273.6Z" transform="translate(-98.53 -64.31)"/><path d="M288.38,275.17c.34-1.46-.83-4.09,1.47-4.09,2.5,0,1.36,2.69,1.59,4.24a45.61,45.61,0,0,1,.38,5c0,.9-.22,1.93-1.2,2.08s-1.52-.86-1.6-1.72C288.85,278.82,288.08,277.06,288.38,275.17Z" transform="translate(-98.53 -64.31)"/><path d="M309.76,276.44c0,1.21,0,2.43,0,3.65a1.29,1.29,0,0,1-1.24,1.41c-.77.06-1-.51-1.17-1.14a18.47,18.47,0,0,1-.29-7.51c.11-.72.52-1.54,1.56-1.43s1.32.92,1.3,1.88,0,2.09,0,3.14Z" transform="translate(-98.53 -64.31)"/><path d="M375.47,371c.28-2.72.82-5.37,2.57-7.57.78-1,1.77-1.86,3.14-1.05,1.22.73,1.11,2,.7,3.05-1,2.62-2,5.18-1.89,8.09.05,1.09-.89,1.69-1.88,1.89s-1.61-.59-2-1.36A5.17,5.17,0,0,1,375.47,371Z" transform="translate(-98.53 -64.31)"/><path d="M267.19,372.39a7.23,7.23,0,0,0-1.4-4.66c-.5-.71-1-1.56-.15-2.36s1.59-.15,2.29.33c1.58,1.09,3.58,6.09,3.15,7.93-.29,1.22-1,2.15-2.37,1.87C266.91,375.15,267.19,373.68,267.19,372.39Z" transform="translate(-98.53 -64.31)"/><path d="M323.86,353.58c2.2,0,4.43-.18,6.5.76,1.79.81,3.45,1.83,3.72,4.06a4.88,4.88,0,0,1-2.79,5.26A25.53,25.53,0,0,1,312.35,365c-2.07-.66-4.36-1.82-4.3-4.42s2.2-4.35,4.45-5.4C316.09,353.54,320,353.74,323.86,353.58ZM321,357.63c-2,.27-4.11-.2-6.15.52-.73.26-1.68.33-1.68,1.34s.87,1.13,1.52,1.21c4.35.55,8.7.83,12.95-.66.49-.18,1.05-.36,1.06-1s-.61-.72-1.1-.9C325.49,357.35,323.28,357.8,321,357.63Z" transform="translate(-98.53 -64.31)"/><path d="M182.89,540.68a3.15,3.15,0,0,1-1.45-1.35,4.71,4.71,0,0,1-.35-1.94l-.7-25.52a4.51,4.51,0,0,1,.17-2,3,3,0,0,1,1.24-1.41,5.45,5.45,0,0,1,2.94-.62,7.81,7.81,0,0,1,4,.74A6.13,6.13,0,0,1,191,511l6.76,12.29c.67-1.45,1.25-2.72,1.74-3.82l1.5-3.35q.76-1.71,1.35-3c.39-.85.65-1.38.76-1.62a12.8,12.8,0,0,1,1.06-1.62,7.88,7.88,0,0,1,2.21-1.91,7.54,7.54,0,0,1,3.79-.94,6.11,6.11,0,0,1,2.7.38,3.19,3.19,0,0,1,1.33,1,3.68,3.68,0,0,1,.5,1.53c0,2,0,3.82,0,5.47s0,3.45,0,5.41v5.91c0,2,0,3.79,0,5.44s0,3,0,4v1.58s0,.24,0,.59a2.79,2.79,0,0,1-.45,1.21,3.24,3.24,0,0,1-1.44,1.17,7,7,0,0,1-3,.5,7.88,7.88,0,0,1-3-.44,3.28,3.28,0,0,1-1.44-1,2.94,2.94,0,0,1-.53-1.38c0-1.37,0-2.58,0-3.62l.06-3.11c0-1,0-2.27,0-3.68l.46-8.41-3.05,6.53a5.24,5.24,0,0,1-1.53,1.94,4.76,4.76,0,0,1-2.65.71,5,5,0,0,1-2.67-.5,5.32,5.32,0,0,1-1.74-1.68l-3.82-7c.12,1.85.22,3.5.3,5s.15,3,.23,4.65.15,3.15.21,4.58.1,2.58.14,3.44a3.5,3.5,0,0,1-.64,2.44,3.62,3.62,0,0,1-1.65,1.18,8.5,8.5,0,0,1-2.41.38A6.94,6.94,0,0,1,182.89,540.68Z" transform="translate(-98.53 -64.31)"/><path d="M218,519.19a3.07,3.07,0,0,1,1.32-1.2,6,6,0,0,1,2.79-.53,6.16,6.16,0,0,1,3.21.62,2.46,2.46,0,0,1,1.18,1.47,4.36,4.36,0,0,1,.08,1.64,8.16,8.16,0,0,0-.11,1.09c0,.16,0,.74,0,1.73s.08,2.19.2,3.56a33.93,33.93,0,0,0,.59,4.06,11,11,0,0,0,1.18,3.32,2.13,2.13,0,0,0,2,1.27,1.7,1.7,0,0,0,1.65-1.3,8.32,8.32,0,0,0,.32-3.06,23.79,23.79,0,0,0-.44-3.64c-.23-1.22-.47-2.26-.7-3.15a12.06,12.06,0,0,1-.36-1.5,4.15,4.15,0,0,0-.14-.85,3.2,3.2,0,0,1,0-1.38,2.41,2.41,0,0,1,1-1.41,5.19,5.19,0,0,1,2.7-.82,7.24,7.24,0,0,1,3,.2,3.64,3.64,0,0,1,1.59,1,3.79,3.79,0,0,1,.74,1.59,42.37,42.37,0,0,1,1.17,5,24.36,24.36,0,0,1,.27,4.67,12.79,12.79,0,0,1-1.06,4.68,8.17,8.17,0,0,1-3.18,3.61,11.37,11.37,0,0,1-6.14,1.41,12.72,12.72,0,0,1-6.47-1.47,11.13,11.13,0,0,1-4-3.79,17.11,17.11,0,0,1-2.09-4.91,25.76,25.76,0,0,1-.76-4.91,47.1,47.1,0,0,1,.06-5.26A4.21,4.21,0,0,1,218,519.19Z" transform="translate(-98.53 -64.31)"/><path d="M250.36,541.27a11.37,11.37,0,0,1-2.5-.23,3.91,3.91,0,0,1-1.74-.94,3.05,3.05,0,0,1-.88-2.06c0-.75-.12-1.8-.23-3.18s-.25-2.87-.39-4.49-.26-3.18-.38-4.65-.25-3.15-.41-5a4.12,4.12,0,0,1,.5-1.64,3.41,3.41,0,0,1,1.35-1.18,6.3,6.3,0,0,1,2.74-.59,6.73,6.73,0,0,1,2.76.36,3.33,3.33,0,0,1,1.44,1,3.28,3.28,0,0,1,.62,1.44,28.31,28.31,0,0,1,3.91-1.71,13.72,13.72,0,0,1,3.67-.7H262a5.29,5.29,0,0,1,1.88.38,5.62,5.62,0,0,1,2.06,1.44,8.15,8.15,0,0,1,1.73,3.09,18.59,18.59,0,0,1,.83,5.32c.12,2.74.2,5,.26,6.76a20.89,20.89,0,0,1-.17,4.09,2.76,2.76,0,0,1-1.18,2,5.55,5.55,0,0,1-2.85.56,5.49,5.49,0,0,1-2.77-.53,2.33,2.33,0,0,1-1.11-1.26,4.3,4.3,0,0,1-.24-1.32c0-.24,0-.88.12-1.91s.14-2.24.18-3.59,0-2.69,0-4a13.8,13.8,0,0,0-.47-3.23c-.26-.85-.66-1.25-1.21-1.21a3.24,3.24,0,0,0-1.85.74,8.63,8.63,0,0,0-1.5,1.52,20.14,20.14,0,0,0-1.35,2.09l.59,8.88a4.34,4.34,0,0,1-.36,1.91,3.2,3.2,0,0,1-1.32,1.32A5.51,5.51,0,0,1,250.36,541.27Z" transform="translate(-98.53 -64.31)"/><path d="M274.14,516.14a4.29,4.29,0,0,1-1.85-1.21,3.91,3.91,0,0,1-.88-2.65,4.32,4.32,0,0,1,.53-2.61,3,3,0,0,1,1.47-1.18,5.61,5.61,0,0,1,1.7-.35,10.33,10.33,0,0,0,1.18-.09,3.84,3.84,0,0,1,1.17.09,5.34,5.34,0,0,1,1.71.65,4,4,0,0,1,1.47,1.47,4.24,4.24,0,0,1,.47,2.55,4,4,0,0,1-.8,2.33,3.23,3.23,0,0,1-1.52,1.05,8.4,8.4,0,0,1-2.09.33A10.27,10.27,0,0,1,274.14,516.14Zm-.91,8.08c-.35-.82-.57-1.31-.65-1.47s-.11-.36-.2-.73a1.46,1.46,0,0,1,.29-1.21,3,3,0,0,1,2-.94,13.28,13.28,0,0,1,3.29-.18,6,6,0,0,1,3,1,4.3,4.3,0,0,1,1.62,3.15c.15,1.1.31,2.4.47,3.91s.3,3,.44,4.41.3,3.11.5,5a5.29,5.29,0,0,1-.12,2,2.7,2.7,0,0,1-1.14,1.42,5.36,5.36,0,0,1-2.92.61,6.55,6.55,0,0,1-3.05-.56,3.72,3.72,0,0,1-1.5-1.26,4.81,4.81,0,0,1-.62-1.82Z" transform="translate(-98.53 -64.31)"/><path d="M307,527.87a7.34,7.34,0,0,1-3.32-.56,2.84,2.84,0,0,1-1.3-1.15,2.81,2.81,0,0,1-.26-.76,2.48,2.48,0,0,0-.21-.71,3.24,3.24,0,0,0-.67-1,1.65,1.65,0,0,0-1.24-.5c-.51,0-1,.32-1.47,1.06a10.87,10.87,0,0,0-1.17,2.68,14.05,14.05,0,0,0-.59,3,9.91,9.91,0,0,0,.32,2.88,6.66,6.66,0,0,0,1.15,2.44,2.48,2.48,0,0,0,1.82,1,2.39,2.39,0,0,0,2.29-1.06,2.65,2.65,0,0,1,.8-1.24,4.78,4.78,0,0,1,1.79-.79,13.58,13.58,0,0,1,3.53-.27,6.69,6.69,0,0,1,3.12.59,1.57,1.57,0,0,1,.85,1.18,3,3,0,0,1-.56,1.59,23.07,23.07,0,0,1-3.2,2.52,17.48,17.48,0,0,1-3.8,1.77,15.74,15.74,0,0,1-5.11.76c-3.81,0-6.81-1-9-3.11s-3.4-5-3.56-8.82a10.32,10.32,0,0,1,1-5.06,11.73,11.73,0,0,1,3-3.79,14.19,14.19,0,0,1,4.18-2.41,14.86,14.86,0,0,1,4.47-1,10.48,10.48,0,0,1,4.23.61,13.91,13.91,0,0,1,3.62,2,13.35,13.35,0,0,1,2.61,2.59,5.25,5.25,0,0,1,1.12,2.53,2.1,2.1,0,0,1-.5,1.76,3.3,3.3,0,0,1-1.53.91,8.31,8.31,0,0,1-1.62.33Z" transform="translate(-98.53 -64.31)"/><path d="M317.71,516.14a4.29,4.29,0,0,1-1.85-1.21,4,4,0,0,1-.88-2.65,4.32,4.32,0,0,1,.53-2.61,3,3,0,0,1,1.47-1.18,5.61,5.61,0,0,1,1.7-.35,10.33,10.33,0,0,0,1.18-.09,3.84,3.84,0,0,1,1.17.09,5.34,5.34,0,0,1,1.71.65,4,4,0,0,1,1.47,1.47,4.24,4.24,0,0,1,.47,2.55,4,4,0,0,1-.8,2.33,3.23,3.23,0,0,1-1.52,1.05,8.4,8.4,0,0,1-2.09.33A10.27,10.27,0,0,1,317.71,516.14Zm-.91,8.08c-.35-.82-.57-1.31-.65-1.47s-.11-.36-.2-.73a1.46,1.46,0,0,1,.29-1.21,3,3,0,0,1,2-.94,13.28,13.28,0,0,1,3.29-.18,6,6,0,0,1,3,1,4.3,4.3,0,0,1,1.62,3.15c.15,1.1.31,2.4.47,3.91s.3,3,.44,4.41.3,3.11.5,5a5.29,5.29,0,0,1-.12,2,2.74,2.74,0,0,1-1.14,1.42,5.34,5.34,0,0,1-2.91.61,6.57,6.57,0,0,1-3.06-.56,3.72,3.72,0,0,1-1.5-1.26,4.81,4.81,0,0,1-.62-1.82Z" transform="translate(-98.53 -64.31)"/><path d="M333.26,549.68l-1.94-23.87a9.06,9.06,0,0,1-.76-1.68,3,3,0,0,1-.12-1.44,1.7,1.7,0,0,1,.88-1.17c.43-.24,1.23-.7,2.38-1.39a30.27,30.27,0,0,1,4.27-2,23.86,23.86,0,0,1,5.44-1.42,15.42,15.42,0,0,1,5.88.33,12.56,12.56,0,0,1,5.61,3.26,10.68,10.68,0,0,1,3.24,5.47,12.69,12.69,0,0,1-.09,5.88,13.88,13.88,0,0,1-2.41,5.06,9.34,9.34,0,0,1-3.8,3,19.76,19.76,0,0,1-4.94,1.44,20.34,20.34,0,0,1-4.29.09l.59,8.88a5.1,5.1,0,0,1-.32,1.94,2.87,2.87,0,0,1-1.33,1.32,6,6,0,0,1-2.94.56,7.24,7.24,0,0,1-3.73-.82,3,3,0,0,1-1.38-1.76A7.56,7.56,0,0,1,333.26,549.68Zm8.82-13.76a12.8,12.8,0,0,0,3.27-.35,4.83,4.83,0,0,0,2.2-1.35,3.87,3.87,0,0,0,.82-3,26.82,26.82,0,0,0-.58-4.74,7.68,7.68,0,0,0-1.41-3.2,2.56,2.56,0,0,0-2.59-.82c-1.1.19-1.85.34-2.27.44a2,2,0,0,0-.73.26Z" transform="translate(-98.53 -64.31)"/><path d="M377.77,517.49a14.81,14.81,0,0,1,3.41,1.32,18.29,18.29,0,0,1,2.12,1.35,2.24,2.24,0,0,0,1.12.59c.43,0,.84.43,1.23,1.18.24,1.57.44,3,.62,4.17s.34,2.49.5,3.82.29,2.59.41,3.77.18,2.09.18,2.76a13.42,13.42,0,0,1-.21,2.65,2.14,2.14,0,0,1-1.2,1.5,9.54,9.54,0,0,1-3.3.67,9.18,9.18,0,0,1-2.47-.06,1.79,1.79,0,0,1-1.11-.64,3.69,3.69,0,0,1-1.74.56,31.26,31.26,0,0,1-3.32.14,25.8,25.8,0,0,1-4.67-1.09,15.66,15.66,0,0,1-3.94-2,10.84,10.84,0,0,1-3.27-3.71,11.39,11.39,0,0,1-1.23-5.79,12,12,0,0,1,1.29-5.67,10.16,10.16,0,0,1,3-3.44,12.55,12.55,0,0,1,3.5-1.77,22,22,0,0,1,4.09-.76A18,18,0,0,1,377.77,517.49Zm-.58,5.55a3.86,3.86,0,0,0-1.27-.91c-.65-.33-1.25-.61-1.82-.85s-.85-.31-.85-.23a9.1,9.1,0,0,1-.62,1,12.45,12.45,0,0,0-1.24,2.64,13.5,13.5,0,0,0-.67,4.15,10.49,10.49,0,0,0,.64,4.17,7.21,7.21,0,0,0,1.74,2.71,3,3,0,0,0,1.91.94,1.71,1.71,0,0,0,1.23-.62,5.71,5.71,0,0,0,1-1.41c.28-.53.57-1.19.89-2Z" transform="translate(-98.53 -64.31)"/><path d="M395.12,505.88a11.18,11.18,0,0,1,2.53.32,4.42,4.42,0,0,1,1.76.91,2.26,2.26,0,0,1,.77,1.82c0,.51,0,1.55.05,3.12s.08,3.42.12,5.56.09,4.33.15,6.58.11,4.36.15,6.32.07,4.16.11,6.59a5.41,5.41,0,0,1-.35,2.09,3.29,3.29,0,0,1-1.35,1.47,5.7,5.7,0,0,1-2.94.61,7.87,7.87,0,0,1-3.76-.67,2.88,2.88,0,0,1-1.45-1.53,3.48,3.48,0,0,1-.2-1.33,16.81,16.81,0,0,0,.06-2q0-1.83,0-4.59t-.09-5.94c0-2.12-.08-4.2-.12-6.26s-.09-3.9-.14-5.53-.11-2.83-.15-3.61a2.85,2.85,0,0,1,.79-2.47,4.54,4.54,0,0,1,2.12-1.09A12.92,12.92,0,0,1,395.12,505.88Z" transform="translate(-98.53 -64.31)"/><path d="M427.34,523.52a8,8,0,0,1-1.65,4.73,9.37,9.37,0,0,1-3.55,2.7,17.19,17.19,0,0,1-4.15,1.24,32.2,32.2,0,0,1-4.82.32,7.19,7.19,0,0,0,1,2.94,2.23,2.23,0,0,0,1.44,1,2.91,2.91,0,0,0,1.5-.15,5.94,5.94,0,0,0,1.59-1,9.13,9.13,0,0,1,2.67-1.55,10.25,10.25,0,0,1,3.5-.5,6,6,0,0,1,3.26.61,1.68,1.68,0,0,1,.83,1.41,5.1,5.1,0,0,1-.68,2,9.38,9.38,0,0,1-2.29,1.88,15,15,0,0,1-3.59,1.39,24.93,24.93,0,0,1-5.88.67,14.22,14.22,0,0,1-5.82-.94,11.37,11.37,0,0,1-3.88-2.61,12.12,12.12,0,0,1-2.32-3.42,16.88,16.88,0,0,1-1.12-3.35,12.32,12.32,0,0,1-.32-2.44,22.23,22.23,0,0,1,.14-2.29,11.44,11.44,0,0,1,.77-3,9.68,9.68,0,0,1,1.91-3,9.33,9.33,0,0,1,3.56-2.29,16.86,16.86,0,0,1,5.79-.94,21.7,21.7,0,0,1,6.88.76,8.75,8.75,0,0,1,3.58,2,5.27,5.27,0,0,1,1.39,2.24A7.51,7.51,0,0,1,427.34,523.52Zm-9.64,3.41a4.59,4.59,0,0,0,2.06-2.77,3.09,3.09,0,0,0-.56-2.61,2.8,2.8,0,0,0-2.56-1,3.17,3.17,0,0,0-2.59,1.27,7.21,7.21,0,0,0-1.23,2.76,23,23,0,0,0-.47,3.85A11,11,0,0,0,417.7,526.93Z" transform="translate(-98.53 -64.31)"/><path d="M444.8,531.86a26.37,26.37,0,0,1-6.88-.88,8.26,8.26,0,0,1-3.49-1.82,4.55,4.55,0,0,1-1.27-2.09,7.38,7.38,0,0,1-.23-1.61,13.69,13.69,0,0,1,.17-1.83,6.1,6.1,0,0,1,1.12-2.58,7.4,7.4,0,0,1,3.26-2.36,18.86,18.86,0,0,1,6.62-1.11,27.61,27.61,0,0,1,7.23.53,9.92,9.92,0,0,1,3.62,1.52,5,5,0,0,1,1.56,2.24,7.05,7.05,0,0,1-.18,1.56,2,2,0,0,1-1,1.29,5.84,5.84,0,0,1-2.91.44,11.62,11.62,0,0,1-2.47-.29,3.51,3.51,0,0,1-1.21-.56c-.25-.22-.51-.44-.76-.68a3.16,3.16,0,0,0-1.12-.59,9.85,9.85,0,0,0-2.32-.29,8.79,8.79,0,0,0-2.91.27,2.42,2.42,0,0,0-1.29.79,2.28,2.28,0,0,0-.39,1.12,2.33,2.33,0,0,0,1.33,1.41,10.72,10.72,0,0,0,3.73.53,33.49,33.49,0,0,1,7.85,1,9.84,9.84,0,0,1,3.88,1.85,4,4,0,0,1,1.35,2.09,8.52,8.52,0,0,1,.21,1.61,6.95,6.95,0,0,1-2,4.41,10,10,0,0,1-3.79,2.36,21.09,21.09,0,0,1-6.85,1.11,27.65,27.65,0,0,1-7.21-.53,9.71,9.71,0,0,1-3.64-1.53,4.78,4.78,0,0,1-1.56-2.23,6,6,0,0,1,.21-1.59,2.09,2.09,0,0,1,1.05-1.26,5.68,5.68,0,0,1,2.86-.44,11.51,11.51,0,0,1,2.5.29,3.63,3.63,0,0,1,1.2.56,10.1,10.1,0,0,1,.77.68,2.6,2.6,0,0,0,1.11.58,9.49,9.49,0,0,0,2.3.3,8.79,8.79,0,0,0,2.91-.27,2.71,2.71,0,0,0,1.32-.79,1.84,1.84,0,0,0,.35-1.12,2.23,2.23,0,0,0-1.26-1.5A10.15,10.15,0,0,0,444.8,531.86Z" transform="translate(-98.53 -64.31)"/><path d="M980.74,519.8a3.32,3.32,0,0,1,0-1.71,2.48,2.48,0,0,1,1.06-1.29,5.87,5.87,0,0,1,2.73-.76c1.26-.12,2.68-.22,4.27-.3l4.58-.23,5-.24a18.12,18.12,0,0,1,2.68.27,5.54,5.54,0,0,1,2,.76,2.25,2.25,0,0,1,1.05,1.62,1.77,1.77,0,0,1-.41,1.64,3.4,3.4,0,0,1-1.41.86,10.57,10.57,0,0,1-2.12.38l-9.4.53c.23,1,.42,1.85.55,2.5a13.25,13.25,0,0,1,.27,1.67c0,.44.08,1,.12,1.68s.09,1.56.17,2.62h4.35a11.47,11.47,0,0,1,2.15.26,4.83,4.83,0,0,1,1.5.62,1.5,1.5,0,0,1,.71,1.23,1.64,1.64,0,0,1-.8,1.59,4.84,4.84,0,0,1-1.76.68c-.61.1-1,.16-1.15.2l-.94,0q-.76,0-1.68,0h-2.32q.06,1.71.12,2.82a15.59,15.59,0,0,1,0,1.94q0,.76-.06,1.86t-.18,2.67l7.94-.29a12.8,12.8,0,0,1,2.59.12,4.83,4.83,0,0,1,1.88.7,1.89,1.89,0,0,1,.88,1.59,1.86,1.86,0,0,1-.59,1.7,4.07,4.07,0,0,1-1.64.94,12.84,12.84,0,0,1-2.41.47l-12.7.65a14.77,14.77,0,0,1-3-.15,4.55,4.55,0,0,1-2.06-.88,2.31,2.31,0,0,1-.82-2.08c.08-1.26.15-3.23.23-5.91s0-5.83-.12-9.44A90.68,90.68,0,0,0,980.74,519.8Z" transform="translate(-98.53 -64.31)"/><path d="M1020.49,540.2a26.31,26.31,0,0,1-6.88-.88,8.36,8.36,0,0,1-3.5-1.82,4.44,4.44,0,0,1-1.26-2.09,7.5,7.5,0,0,1-.24-1.62,14,14,0,0,1,.18-1.82,6.16,6.16,0,0,1,1.11-2.59,7.51,7.51,0,0,1,3.27-2.35,18.57,18.57,0,0,1,6.61-1.11,28.06,28.06,0,0,1,7.23.52,9.83,9.83,0,0,1,3.62,1.53,4.93,4.93,0,0,1,1.56,2.24,7.05,7.05,0,0,1-.18,1.56,2,2,0,0,1-1,1.29,5.84,5.84,0,0,1-2.91.44,11.71,11.71,0,0,1-2.47-.29,3.36,3.36,0,0,1-1.2-.56c-.26-.22-.51-.44-.77-.68a3,3,0,0,0-1.11-.59,10,10,0,0,0-2.33-.29,9.13,9.13,0,0,0-2.91.26,2.47,2.47,0,0,0-1.29.8,2.23,2.23,0,0,0-.38,1.12,2.28,2.28,0,0,0,1.32,1.41,10.76,10.76,0,0,0,3.73.53,33.49,33.49,0,0,1,7.85,1,9.64,9.64,0,0,1,3.88,1.85,4,4,0,0,1,1.36,2.09,9.24,9.24,0,0,1,.2,1.61,6.82,6.82,0,0,1-.38,1.83,6.92,6.92,0,0,1-1.62,2.58,9.87,9.87,0,0,1-3.79,2.35,20.75,20.75,0,0,1-6.85,1.12,28,28,0,0,1-7.2-.53,9.77,9.77,0,0,1-3.65-1.53,4.93,4.93,0,0,1-1.56-2.23,6,6,0,0,1,.21-1.59,2.11,2.11,0,0,1,1.06-1.26A5.55,5.55,0,0,1,1013,542a10.83,10.83,0,0,1,2.5.29,3.54,3.54,0,0,1,1.2.56,7.19,7.19,0,0,1,.77.68,2.65,2.65,0,0,0,1.12.58,9.39,9.39,0,0,0,2.29.3,8.79,8.79,0,0,0,2.91-.27,2.62,2.62,0,0,0,1.32-.79,1.79,1.79,0,0,0,.36-1.12,2.22,2.22,0,0,0-1.27-1.5A10.13,10.13,0,0,0,1020.49,540.2Z" transform="translate(-98.53 -64.31)"/><path d="M1036.6,517.51a3,3,0,0,1,.88-2.38c.63-.61,2-1,4.18-1.09a5.44,5.44,0,0,1,3.17.53,4,4,0,0,1,1.53,2l.35,5.23a20.22,20.22,0,0,1,3.21.21,6.1,6.1,0,0,1,2.23.79,2.21,2.21,0,0,1,0,3.64,5.8,5.8,0,0,1-2.18.8,19.66,19.66,0,0,1-3.17.2q.06,2.65.06,4.74t.06,4.44c0,1.57.06,3.06.06,4.49s0,2.63,0,3.59,0,1.52,0,1.68a3.87,3.87,0,0,1-.27,1.17,2.9,2.9,0,0,1-1.35,1.41,9.7,9.7,0,0,1-6.38.21,3.63,3.63,0,0,1-1.44-1,2.84,2.84,0,0,1-.56-1.44Z" transform="translate(-98.53 -64.31)"/><path d="M1072.58,525.83a14.81,14.81,0,0,1,3.41,1.32,18.29,18.29,0,0,1,2.12,1.35,2.33,2.33,0,0,0,1.12.59c.43,0,.84.43,1.23,1.18.24,1.56.44,3,.62,4.17s.34,2.49.5,3.82.29,2.59.41,3.77.18,2.09.18,2.76a13.42,13.42,0,0,1-.21,2.65,2.14,2.14,0,0,1-1.2,1.5,9.78,9.78,0,0,1-3.3.67,9.18,9.18,0,0,1-2.47-.06,1.79,1.79,0,0,1-1.11-.64,3.59,3.59,0,0,1-1.74.55,28.38,28.38,0,0,1-3.32.15,26.67,26.67,0,0,1-4.67-1.09,15.66,15.66,0,0,1-3.94-2,10.84,10.84,0,0,1-3.27-3.71,11.39,11.39,0,0,1-1.23-5.79,12,12,0,0,1,1.29-5.67,10.16,10.16,0,0,1,3-3.44,12.28,12.28,0,0,1,3.5-1.77,21.2,21.2,0,0,1,4.09-.76A17.6,17.6,0,0,1,1072.58,525.83Zm-.58,5.55a3.86,3.86,0,0,0-1.27-.91c-.65-.33-1.25-.62-1.82-.85s-.85-.31-.85-.24a8,8,0,0,1-.62,1,12.57,12.57,0,0,0-1.24,2.65,13.5,13.5,0,0,0-.67,4.15,10.52,10.52,0,0,0,.64,4.17,7.21,7.21,0,0,0,1.74,2.71,3,3,0,0,0,1.91.94,1.71,1.71,0,0,0,1.23-.62,5.71,5.71,0,0,0,1-1.41c.28-.53.57-1.19.89-2Z" transform="translate(-98.53 -64.31)"/><path d="M1104.39,511.27a15.87,15.87,0,0,1,2.41.45,5.56,5.56,0,0,1,1.74.82,1.94,1.94,0,0,1,.85,1.56q.06.64.18,2.79c.08,1.43.16,3.13.26,5.09s.2,4,.3,6.08.18,4.06.26,5.88.18,3.87.3,6.15a9.76,9.76,0,0,1-.39,2.47,6,6,0,0,1-1.14,2.05,14.08,14.08,0,0,1-4.47,3.59,16.23,16.23,0,0,1-7.41,1.41,15.57,15.57,0,0,1-6-1.17,10.41,10.41,0,0,1-4.64-3.74,11,11,0,0,1-1.74-6.67,11.45,11.45,0,0,1,1.38-5.47,12.05,12.05,0,0,1,3.5-3.91,15.64,15.64,0,0,1,4.85-2.32,19.54,19.54,0,0,1,5.38-.77l-.41-10.17a3.47,3.47,0,0,1,0-1.88,2.91,2.91,0,0,1,1.32-1.41A8.06,8.06,0,0,1,1104.39,511.27Zm-4.17,19.41a3.34,3.34,0,0,0-2.59,1,8.58,8.58,0,0,0-2,2.85,8.2,8.2,0,0,0-.79,3.44,10.17,10.17,0,0,0,.85,4.35c.57,1.22,1.33,1.82,2.27,1.82a2,2,0,0,0,1.58-.76,10.06,10.06,0,0,0,1.36-2.35Z" transform="translate(-98.53 -64.31)"/><path d="M1128.68,526.21c.78.43,1.25.69,1.41.76a14.47,14.47,0,0,1,1.59,1,8.12,8.12,0,0,1,2.94,1.68,10.11,10.11,0,0,1,2.17,3.38,17.94,17.94,0,0,1,1.18,6.23,8.67,8.67,0,0,1-.82,4.44,8.53,8.53,0,0,1-2.5,2.94,12.58,12.58,0,0,1-3.36,1.77,19.08,19.08,0,0,1-3.41.85c-1.07.16-2.3.27-3.67.35a18.8,18.8,0,0,1-4-.38,9.78,9.78,0,0,1-3.38-1.53,8.35,8.35,0,0,1-2.76-3.38,12.66,12.66,0,0,1-1-5.94,13.62,13.62,0,0,1,1.38-6.08,11.08,11.08,0,0,1,3-3.74,12.56,12.56,0,0,1,3.59-1.94,22.81,22.81,0,0,1,4.21-.88A6,6,0,0,1,1128.68,526.21Zm-3.12,5.29a16.64,16.64,0,0,0-2.2,3.59,10.05,10.05,0,0,0-.74,4,9.55,9.55,0,0,0,.53,3.52,5.13,5.13,0,0,0,1.15,1.86,1.74,1.74,0,0,0,1,.56,3.52,3.52,0,0,0,1.14-.33,3.09,3.09,0,0,0,1.44-1.5,7.64,7.64,0,0,0,.59-3.7,13.54,13.54,0,0,0-.44-3.41,10,10,0,0,0-1-2.33C1126.59,533.08,1126.11,532.32,1125.56,531.5Z" transform="translate(-98.53 -64.31)"/><path d="M625.2,663a3.83,3.83,0,0,1-1.47-2c0-1.92-.07-3.66-.09-5.23s0-3.29-.09-5.18-.07-3.76-.09-5.64-.05-3.61-.08-5.17-.08-3.32-.12-5.24a3.14,3.14,0,0,1-.62-.59,2.07,2.07,0,0,1-.62-1.23c0-.31.38-.77,1.12-1.35a9.9,9.9,0,0,1,3.79-1.5,25,25,0,0,1,7.38-.21A22.82,22.82,0,0,1,641,631a10.87,10.87,0,0,1,3.55,2.18,7.39,7.39,0,0,1,1.71,2.85,4.07,4.07,0,0,1,.26,1.27c.06.6.11,1.59.15,3s0,3.3,0,5.77a7.59,7.59,0,0,1-4.64,7.38,14.62,14.62,0,0,1-3.86,1.11,27.87,27.87,0,0,1-4.49.21c0,1.69,0,3.51,0,5.47a2.85,2.85,0,0,1-.8,2.2,3.89,3.89,0,0,1-1.82,1,11.87,11.87,0,0,1-2.62.24A5.93,5.93,0,0,1,625.2,663Zm7.88-27.84.53,14.58a8.11,8.11,0,0,0,2.53-.64,4.35,4.35,0,0,0,1.73-1.62,5.46,5.46,0,0,0,.62-3.26c-.08-1.89-.16-3.3-.24-4.24s-.14-1.7-.17-2.29a4,4,0,0,0-.59-1.59,2.74,2.74,0,0,0-1.44-.91A6.83,6.83,0,0,0,633.08,635.13Z" transform="translate(-98.53 -64.31)"/><path d="M651.66,657.42c-.12-1.06-.27-2.27-.44-3.62s-.37-2.71-.56-4.06-.4-2.56-.62-3.64a21.93,21.93,0,0,0-.56-2.33,1.89,1.89,0,0,1,.68-2.5,9.05,9.05,0,0,1,3.56-1,7.38,7.38,0,0,1,4.35.89A5.4,5.4,0,0,1,661,640a21.83,21.83,0,0,1,4.26-.29,8.42,8.42,0,0,1,4.18.88c.86.55,1.29,1.14,1.29,1.76a2.41,2.41,0,0,1-.18,1.06c-.11.24-.58.46-1.38.68s-2.24.58-4.32,1.09a4,4,0,0,0-2.71,2,9,9,0,0,0-1.08,3.58,20.59,20.59,0,0,0,0,4c.11,1.31.25,2.41.41,3.29s.23,1.37.23,1.44,0,.35.09.8a3.36,3.36,0,0,1-.17,1.47,2.64,2.64,0,0,1-1.27,1.38,6.52,6.52,0,0,1-3.17.59,7,7,0,0,1-3.3-.62,3.64,3.64,0,0,1-1.52-1.38,4.63,4.63,0,0,1-.48-2A22,22,0,0,0,651.66,657.42Z" transform="translate(-98.53 -64.31)"/><path d="M676,638.51a4.26,4.26,0,0,1-1.85-1.2,3.91,3.91,0,0,1-.88-2.65,4.41,4.41,0,0,1,.52-2.62,3.1,3.1,0,0,1,1.48-1.17,5.34,5.34,0,0,1,1.7-.36,8.82,8.82,0,0,0,1.18-.08,4.08,4.08,0,0,1,1.17.08,5.58,5.58,0,0,1,1.71.65,4,4,0,0,1,1.47,1.47,4.28,4.28,0,0,1,.47,2.56,4,4,0,0,1-.8,2.32,3.33,3.33,0,0,1-1.52,1.06,8.44,8.44,0,0,1-2.09.32A9.83,9.83,0,0,1,676,638.51Zm-.91,8.09c-.35-.83-.57-1.32-.65-1.47s-.11-.37-.2-.74a1.45,1.45,0,0,1,.29-1.2,3,3,0,0,1,2-1,13.29,13.29,0,0,1,3.29-.17,5.94,5.94,0,0,1,3,1,4.28,4.28,0,0,1,1.62,3.14c.15,1.1.31,2.41.47,3.91s.3,3,.44,4.41.3,3.11.5,5a5.36,5.36,0,0,1-.12,2,2.69,2.69,0,0,1-1.14,1.41,5.35,5.35,0,0,1-2.92.62,6.68,6.68,0,0,1-3.05-.56,3.72,3.72,0,0,1-1.5-1.26,4.8,4.8,0,0,1-.62-1.83Z" transform="translate(-98.53 -64.31)"/><path d="M693.05,654.68c-.59-1.74-1.14-3.41-1.67-5s-1-3-1.39-4.14-.66-2-.82-2.47a2.27,2.27,0,0,1,.53-2.47c.67-.67,2-1,3.88-1a5.83,5.83,0,0,1,2.88.56,3.71,3.71,0,0,1,1.47,1.67L700.4,652l.41,3.41.94-4.77c.4-1.13.75-2.12,1.06-3s.63-1.71.94-2.59.59-1.64.83-2.27a4.3,4.3,0,0,1,1.91-2.49,9.29,9.29,0,0,1,4.26-.5,4.28,4.28,0,0,1,2.24.55,2,2,0,0,1,.85,1.12,3.76,3.76,0,0,1,0,1.56l-8.29,17.64a8,8,0,0,1-2,2.23,5.34,5.34,0,0,1-3.09.77,5.69,5.69,0,0,1-2.73-.59,5.84,5.84,0,0,1-1.74-1.35,8.23,8.23,0,0,1-1.17-1.94C694.21,658.12,693.64,656.43,693.05,654.68Z" transform="translate(-98.53 -64.31)"/><path d="M733.74,639.86a15.26,15.26,0,0,1,3.41,1.33,19.2,19.2,0,0,1,2.12,1.35,2.33,2.33,0,0,0,1.12.59q.65.06,1.23,1.17c.24,1.57.44,3,.62,4.18s.34,2.49.5,3.82.29,2.59.41,3.76.17,2.1.17,2.77a13.42,13.42,0,0,1-.2,2.64,2.09,2.09,0,0,1-1.21,1.5,9.37,9.37,0,0,1-3.29.68,9.16,9.16,0,0,1-2.47-.06,1.86,1.86,0,0,1-1.12-.65,3.53,3.53,0,0,1-1.73.56,28.38,28.38,0,0,1-3.32.15,27.74,27.74,0,0,1-4.68-1.09,16.05,16.05,0,0,1-3.94-2.06,10.88,10.88,0,0,1-3.26-3.7,11.39,11.39,0,0,1-1.23-5.79,11.9,11.9,0,0,1,1.29-5.68,10.15,10.15,0,0,1,3-3.44,12.37,12.37,0,0,1,3.5-1.76,21.67,21.67,0,0,1,4.08-.77A18.39,18.39,0,0,1,733.74,639.86Zm-.59,5.56a3.65,3.65,0,0,0-1.26-.91c-.65-.33-1.26-.62-1.82-.85s-.86-.32-.86-.24a7.93,7.93,0,0,1-.61,1,11.64,11.64,0,0,0-1.24,2.65,13.41,13.41,0,0,0-.68,4.14,10.71,10.71,0,0,0,.65,4.18,7.17,7.17,0,0,0,1.74,2.7A2.93,2.93,0,0,0,731,659a1.69,1.69,0,0,0,1.23-.61,6.26,6.26,0,0,0,1-1.42,18.62,18.62,0,0,0,.88-2Z" transform="translate(-98.53 -64.31)"/><path d="M765.55,625.31a17.69,17.69,0,0,1,2.41.44,5.79,5.79,0,0,1,1.74.82,2,2,0,0,1,.85,1.56c0,.43.1,1.37.18,2.8s.16,3.12.26,5.08.2,4,.29,6.09.19,4.06.27,5.88.18,3.87.29,6.14a9.71,9.71,0,0,1-.38,2.47,6.08,6.08,0,0,1-1.15,2.06,13.87,13.87,0,0,1-4.47,3.59,16.16,16.16,0,0,1-7.4,1.41,15.39,15.39,0,0,1-6-1.18,10.47,10.47,0,0,1-4.65-3.73,11.15,11.15,0,0,1-1.73-6.68,11.41,11.41,0,0,1,1.38-5.46,11.94,11.94,0,0,1,3.5-3.91,15.56,15.56,0,0,1,4.85-2.33,19.47,19.47,0,0,1,5.38-.76l-.41-10.17a3.46,3.46,0,0,1,0-1.88,2.92,2.92,0,0,1,1.32-1.42A8,8,0,0,1,765.55,625.31Zm-4.17,19.4a3.4,3.4,0,0,0-2.59,1,8.73,8.73,0,0,0-2,2.86A8.16,8.16,0,0,0,756,652a10.2,10.2,0,0,0,.85,4.35c.57,1.21,1.32,1.82,2.26,1.82a2,2,0,0,0,1.59-.76,10.19,10.19,0,0,0,1.35-2.36Z" transform="translate(-98.53 -64.31)"/><path d="M789.83,640.25l1.42.76a13.62,13.62,0,0,1,1.58,1,7.82,7.82,0,0,1,2.94,1.68,10,10,0,0,1,2.18,3.38,17.89,17.89,0,0,1,1.18,6.23,8.71,8.71,0,0,1-.83,4.44,8.6,8.6,0,0,1-2.5,2.94,12.49,12.49,0,0,1-3.35,1.76,19.15,19.15,0,0,1-3.41.86c-1.08.15-2.3.27-3.67.35a18.73,18.73,0,0,1-4-.38,9.88,9.88,0,0,1-3.38-1.53,8.52,8.52,0,0,1-2.77-3.38,12.79,12.79,0,0,1-1-5.94,14,14,0,0,1,1.38-6.09,11.18,11.18,0,0,1,3.06-3.73,12.43,12.43,0,0,1,3.59-1.94,21.9,21.9,0,0,1,4.2-.88A6,6,0,0,1,789.83,640.25Zm-3.11,5.29a16.67,16.67,0,0,0-2.21,3.58,10.06,10.06,0,0,0-.73,4,9.4,9.4,0,0,0,.53,3.53,5.08,5.08,0,0,0,1.14,1.85,1.73,1.73,0,0,0,1,.56,3.67,3.67,0,0,0,1.15-.32,3.18,3.18,0,0,0,1.44-1.5,7.66,7.66,0,0,0,.59-3.71,14.08,14.08,0,0,0-.44-3.41,10.41,10.41,0,0,0-1-2.32C787.75,647.12,787.27,646.36,786.72,645.54Z" transform="translate(-98.53 -64.31)"/><path d="M814.18,654.24a26.74,26.74,0,0,1-6.88-.88,8.42,8.42,0,0,1-3.5-1.82,4.6,4.6,0,0,1-1.27-2.09,8.23,8.23,0,0,1-.23-1.62,14,14,0,0,1,.18-1.82,6.05,6.05,0,0,1,1.11-2.59,7.51,7.51,0,0,1,3.27-2.35,18.54,18.54,0,0,1,6.61-1.12,28,28,0,0,1,7.23.53,9.74,9.74,0,0,1,3.62,1.53,4.9,4.9,0,0,1,1.56,2.23,7.05,7.05,0,0,1-.18,1.56,2,2,0,0,1-1,1.3,5.84,5.84,0,0,1-2.91.44,10.88,10.88,0,0,1-2.47-.3,3.05,3.05,0,0,1-1.2-.56c-.26-.21-.51-.44-.77-.67a2.88,2.88,0,0,0-1.11-.59,9.44,9.44,0,0,0-2.33-.29,9.13,9.13,0,0,0-2.91.26,2.53,2.53,0,0,0-1.29.79,2.3,2.3,0,0,0-.38,1.12,2.24,2.24,0,0,0,1.32,1.41,10.52,10.52,0,0,0,3.73.53,34,34,0,0,1,7.85,1,9.91,9.91,0,0,1,3.88,1.85,4.1,4.1,0,0,1,1.36,2.09,9.44,9.44,0,0,1,.2,1.62,6.7,6.7,0,0,1-.38,1.82,7,7,0,0,1-1.62,2.59,9.87,9.87,0,0,1-3.79,2.35,20.75,20.75,0,0,1-6.85,1.12,28,28,0,0,1-7.2-.53,9.77,9.77,0,0,1-3.65-1.53,5,5,0,0,1-1.56-2.23,6,6,0,0,1,.21-1.59,2.15,2.15,0,0,1,1.06-1.27,5.66,5.66,0,0,1,2.85-.44,10.71,10.71,0,0,1,2.5.3,3.36,3.36,0,0,1,1.2.56,8.41,8.41,0,0,1,.77.67,2.65,2.65,0,0,0,1.12.59,9,9,0,0,0,2.29.29,8.84,8.84,0,0,0,2.91-.26,2.69,2.69,0,0,0,1.32-.79,1.81,1.81,0,0,0,.36-1.12,2.18,2.18,0,0,0-1.27-1.5A10.09,10.09,0,0,0,814.18,654.24Z" transform="translate(-98.53 -64.31)"/></svg>